<svg width="195" height="39" viewBox="0 0 195 39" fill="none" xmlns="http://www.w3.org/2000/svg">
<path d="M32.1686 3.13028L37.3702 37.1511C37.4449 37.6394 37.8648 38 38.3587 38H49.1491C49.6396 38 50.0577 37.6442 50.1362 37.1601L55.8035 2.21167C55.9049 1.58628 55.4066 1.02541 54.7736 1.05252L33.1143 1.98006C32.5195 2.00553 32.0786 2.54181 32.1686 3.13028Z" stroke="#F81111"/>
<path d="M55.934 36.1812L53.1009 2.21C53.0486 1.58298 53.5815 1.06403 54.2069 1.1329L66.3665 2.47191C66.7529 2.51446 67.0797 2.7771 67.2043 3.14533L70.6744 13.399C70.8534 13.9279 70.5646 14.501 70.033 14.6717L64.4249 16.4729C63.7464 16.6908 63.5071 17.5284 63.9681 18.0719L78.7888 35.5443C79.3059 36.154 78.9339 37.094 78.1396 37.1847L71.6072 37.9307C71.2345 37.9732 70.8692 37.8036 70.6613 37.4913L61.2607 23.3702C60.6368 22.433 59.1802 23.0817 59.4595 24.1724L62.6273 36.5443C62.8044 37.2362 62.22 37.8855 61.5132 37.7817L56.7853 37.0875C56.3254 37.02 55.9727 36.6445 55.934 36.1812Z" stroke="#F81111"/>
<path d="M156.932 36.2079L154.104 3.20898C154.05 2.58233 154.581 2.06227 155.207 2.12927L167.37 3.43252C167.755 3.47372 168.081 3.733 168.208 4.0983L171.661 14.0249C171.846 14.5583 171.554 15.1395 171.015 15.3079L165.462 17.0431C164.773 17.2584 164.532 18.1105 165.007 18.6547L179.745 35.56C180.275 36.1683 179.903 37.1219 179.101 37.211L172.597 37.9337C172.229 37.9745 171.87 37.8095 171.661 37.5045L162.263 23.7689C161.629 22.8426 160.185 23.5026 160.471 24.5881L163.616 36.5424C163.799 37.2343 163.216 37.888 162.508 37.7868L157.787 37.1124C157.326 37.0466 156.972 36.6716 156.932 36.2079Z" stroke="#F81111"/>
<path d="M69.2366 3.31049L75.3033 36.9104C75.4085 37.4934 75.9947 37.8576 76.564 37.6937L89.117 34.0803C89.6163 33.9365 89.9223 33.4344 89.8213 32.9248L84.1435 4.28877C84.0582 3.85859 83.7025 3.53418 83.2663 3.48866L70.3245 2.13821C69.6619 2.06907 69.1182 2.65492 69.2366 3.31049Z" stroke="#F81111"/>
<path d="M87.4816 3.07701L85.0761 36.9291C85.035 37.5079 85.4934 38 86.0736 38H89.1163C89.6686 38 90.1163 37.5523 90.1163 37V25.9703C90.1163 25.5769 90.3469 25.2201 90.7056 25.0585L94.6731 23.2712C95.2347 23.0182 95.8894 23.3283 96.0494 23.9232L99.638 37.2598C99.7555 37.6965 100.151 38 100.604 38H105.698C106.355 38 106.834 37.3769 106.664 36.7419L97.9602 4.15564C97.8573 3.77045 97.5354 3.48318 97.1411 3.42456L88.6261 2.15876C88.05 2.07312 87.5229 2.49602 87.4816 3.07701Z" stroke="#F81111"/>
<path d="M125.482 3.07701L123.076 36.9291C123.035 37.5079 123.493 38 124.074 38H127.116C127.669 38 128.116 37.5523 128.116 37V25.9703C128.116 25.5769 128.347 25.2201 128.706 25.0585L132.673 23.2712C133.235 23.0182 133.889 23.3283 134.049 23.9232L137.638 37.2598C137.756 37.6965 138.151 38 138.604 38H143.698C144.355 38 144.834 37.3769 144.664 36.7419L135.96 4.15564C135.857 3.77045 135.535 3.48318 135.141 3.42456L126.626 2.15876C126.05 2.07312 125.523 2.49602 125.482 3.07701Z" stroke="#F81111"/>
<path d="M22.9486 36.101L21.0604 3.05705C21.0276 2.48328 21.4841 2 22.0588 2H25.0496C25.5821 2 26.0212 2.41736 26.0483 2.94922L27.4415 30.3492C27.4724 30.9567 28.034 31.3962 28.6311 31.2801L44.1102 28.2702C44.7881 28.1384 45.3924 28.7172 45.29 29.4002L44.134 37.1065C44.0579 37.6139 43.6101 37.9814 43.0975 37.957L23.8994 37.0428C23.3882 37.0185 22.9778 36.612 22.9486 36.101Z" stroke="#F81111"/>
<path d="M3.42054 36.3717L1.07537 3.07025C1.03463 2.49174 1.49295 2 2.0729 2H15.2317C15.6848 2 16.0812 2.30458 16.198 2.74234L17.826 8.84751C17.9311 9.24177 17.7862 9.66035 17.4598 9.90517L10.4 15.2C9.63119 15.7766 10.039 17 11 17H20.2863C20.7133 17 21.0932 17.2711 21.232 17.6749L26.1267 31.914C26.324 32.488 25.9687 33.104 25.373 33.2205L4.61008 37.2828C4.02035 37.3982 3.46275 36.9711 3.42054 36.3717Z" stroke="#F81111"/>
<path d="M99.0879 4.64626L101.725 37.081C101.767 37.6002 102.201 38 102.722 38H106.718C107.325 38 107.792 37.4635 107.708 36.8622L104.979 17.248C104.851 16.3227 105.948 15.7419 106.641 16.3688L113.394 22.4811C113.894 22.9331 114.688 22.7721 114.972 22.1614L118.395 14.8024C118.854 13.8147 120.338 14.1692 120.301 15.2579L119.568 36.9663C119.549 37.5315 120.002 38 120.568 38H123.736C124.261 38 124.696 37.595 124.734 37.0719L126.942 6.4593C126.976 5.98862 126.676 5.55827 126.223 5.42689L115.481 2.31334C114.906 2.1466 114.314 2.51951 114.216 3.1104L112.556 13.1349C112.399 14.0822 111.127 14.2854 110.683 13.4341L105.814 4.10264C105.641 3.77233 105.3 3.56522 104.927 3.56522H100.085C99.5004 3.56522 99.0406 4.06394 99.0879 4.64626Z" stroke="#F81111"/>
<path d="M141.409 37.1009L138.101 4.49951C138.045 3.94825 138.448 3.4566 139 3.40323L152.786 2.06909C153.213 2.02779 153.618 2.26311 153.794 2.65407L157.732 11.4054C157.895 11.7668 157.829 12.1901 157.564 12.4847L154.575 15.8056C154.079 16.3561 153.178 16.1957 152.903 15.508L150.877 10.4418C150.67 9.92386 150.079 9.67558 149.564 9.89015L145.115 11.7436C144.743 11.8989 144.5 12.263 144.5 12.6667V32C144.5 32.5523 144.948 33 145.5 33H151.113C151.795 33 152.277 32.3313 152.061 31.6838L151.207 29.1218C150.934 28.3018 149.819 28.1914 149.39 28.9419L149.368 28.9806C148.984 29.6524 148.016 29.6524 147.632 28.9806L146.938 27.7665C146.688 27.3286 146.803 26.7729 147.206 26.4703L150.006 24.3708C150.309 24.1436 150.714 24.107 151.053 24.2764L155.767 26.6334C156.193 26.8465 156.41 27.331 156.284 27.7909L153.701 37.2631C153.582 37.6982 153.187 38 152.736 38H142.404C141.89 38 141.461 37.6115 141.409 37.1009Z" stroke="#F81111"/>
<path d="M175.92 37.0879L173.064 4.72166C173.026 4.29111 173.269 3.88488 173.666 3.71462L178.606 1.59739C179.266 1.31459 180 1.79862 180 2.51654V28.1138C180 29.1103 181.298 29.4937 181.84 28.657L185.34 23.2479C185.444 23.0861 185.5 22.8974 185.5 22.7047V2.38743C185.5 1.70487 186.169 1.2229 186.816 1.43874L193.784 3.76131C194.208 3.90258 194.486 4.30779 194.467 4.75407L193.042 37.0441C193.019 37.5787 192.578 38 192.043 38H189.659C189.259 38 188.898 37.7616 188.74 37.3939L187.946 35.54C187.709 34.9875 187.042 34.7673 186.523 35.0701L181.734 37.8638C181.581 37.953 181.407 38 181.23 38H176.916C176.397 38 175.965 37.6041 175.92 37.0879Z" stroke="#F81111"/>
</svg>
