<svg width="32" height="32" viewBox="0 0 32 32" fill="none" xmlns="http://www.w3.org/2000/svg">
<path d="M7.99999 5.33333C7.29275 5.33333 6.61447 5.61428 6.11437 6.11438C5.61427 6.61448 5.33332 7.29275 5.33332 8V24C5.33332 24.7072 5.61427 25.3855 6.11437 25.8856C6.61447 26.3857 7.29275 26.6667 7.99999 26.6667H24C24.7072 26.6667 25.3855 26.3857 25.8856 25.8856C26.3857 25.3855 26.6667 24.7072 26.6667 24V8C26.6667 7.29275 26.3857 6.61448 25.8856 6.11438C25.3855 5.61428 24.7072 5.33333 24 5.33333H7.99999ZM7.99999 2.66666H24C25.4145 2.66666 26.771 3.22857 27.7712 4.22876C28.7714 5.22896 29.3333 6.58551 29.3333 8V24C29.3333 25.4145 28.7714 26.771 27.7712 27.7712C26.771 28.7714 25.4145 29.3333 24 29.3333H7.99999C6.5855 29.3333 5.22895 28.7714 4.22875 27.7712C3.22856 26.771 2.66666 25.4145 2.66666 24V8C2.66666 6.58551 3.22856 5.22896 4.22875 4.22876C5.22895 3.22857 6.5855 2.66666 7.99999 2.66666V2.66666ZM17.3333 17.3333V22.6667C17.3333 23.0203 17.1928 23.3594 16.9428 23.6095C16.6928 23.8595 16.3536 24 16 24C15.6464 24 15.3072 23.8595 15.0572 23.6095C14.8071 23.3594 14.6667 23.0203 14.6667 22.6667V17.3333H9.33332C8.9797 17.3333 8.64056 17.1929 8.39051 16.9428C8.14047 16.6928 7.99999 16.3536 7.99999 16C7.99999 15.6464 8.14047 15.3072 8.39051 15.0572C8.64056 14.8071 8.9797 14.6667 9.33332 14.6667H14.6667V9.33333C14.6667 8.97971 14.8071 8.64057 15.0572 8.39052C15.3072 8.14047 15.6464 8 16 8C16.3536 8 16.6928 8.14047 16.9428 8.39052C17.1928 8.64057 17.3333 8.97971 17.3333 9.33333V14.6667H22.6667C23.0203 14.6667 23.3594 14.8071 23.6095 15.0572C23.8595 15.3072 24 15.6464 24 16C24 16.3536 23.8595 16.6928 23.6095 16.9428C23.3594 17.1929 23.0203 17.3333 22.6667 17.3333H17.3333Z" fill="#EB068F"/>
</svg>
