<svg width="32" height="32" viewBox="0 0 32 32" fill="none" xmlns="http://www.w3.org/2000/svg">
<path d="M16 29.3333C8.63602 29.3333 2.66669 23.364 2.66669 16C2.66669 8.636 8.63602 2.66666 16 2.66666C23.364 2.66666 29.3334 8.636 29.3334 16C29.3334 23.364 23.364 29.3333 16 29.3333ZM16 26.6667C18.829 26.6667 21.5421 25.5429 23.5425 23.5425C25.5429 21.5421 26.6667 18.829 26.6667 16C26.6667 13.171 25.5429 10.4579 23.5425 8.45753C21.5421 6.45714 18.829 5.33333 16 5.33333C13.171 5.33333 10.4579 6.45714 8.45755 8.45753C6.45716 10.4579 5.33335 13.171 5.33335 16C5.33335 18.829 6.45716 21.5421 8.45755 23.5425C10.4579 25.5429 13.171 26.6667 16 26.6667ZM16 9.33333C16.3536 9.33333 16.6928 9.47381 16.9428 9.72386C17.1929 9.9739 17.3334 10.313 17.3334 10.6667V17.3333C17.3334 17.687 17.1929 18.0261 16.9428 18.2761C16.6928 18.5262 16.3536 18.6667 16 18.6667C15.6464 18.6667 15.3073 18.5262 15.0572 18.2761C14.8072 18.0261 14.6667 17.687 14.6667 17.3333V10.6667C14.6667 10.313 14.8072 9.9739 15.0572 9.72386C15.3073 9.47381 15.6464 9.33333 16 9.33333ZM16 22.6667C15.6464 22.6667 15.3073 22.5262 15.0572 22.2761C14.8072 22.0261 14.6667 21.687 14.6667 21.3333C14.6667 20.9797 14.8072 20.6406 15.0572 20.3905C15.3073 20.1405 15.6464 20 16 20C16.3536 20 16.6928 20.1405 16.9428 20.3905C17.1929 20.6406 17.3334 20.9797 17.3334 21.3333C17.3334 21.687 17.1929 22.0261 16.9428 22.2761C16.6928 22.5262 16.3536 22.6667 16 22.6667Z" fill="#EB068F"/>
</svg>
