<svg width="32" height="32" viewBox="0 0 32 32" fill="none" xmlns="http://www.w3.org/2000/svg">
<path d="M10.2347 12H8.00002C7.29278 12 6.6145 12.281 6.1144 12.7811C5.61431 13.2812 5.33335 13.9594 5.33335 14.6667V21.3333C5.33335 22.0406 5.61431 22.7189 6.1144 23.219C6.6145 23.7191 7.29278 24 8.00002 24H24C24.7073 24 25.3855 23.7191 25.8856 23.219C26.3857 22.7189 26.6667 22.0406 26.6667 21.3333V14.6667C26.6667 13.9594 26.3857 13.2812 25.8856 12.7811C25.3855 12.281 24.7073 12 24 12H21.7654L21.2494 9.99868C21.1009 9.42662 20.7667 8.92002 20.2993 8.55832C19.8319 8.19661 19.2577 8.00024 18.6667 8.00001H13.3334C12.7422 7.99978 12.1678 8.19598 11.7003 8.55776C11.2328 8.91954 10.8988 9.4264 10.7507 9.99868L10.2347 12ZM8.16802 9.33334C8.76002 7.03334 10.848 5.33334 13.3334 5.33334H18.6667C19.8492 5.3335 20.9981 5.72644 21.9331 6.45045C22.868 7.17446 23.536 8.18851 23.832 9.33334H24C25.4145 9.33334 26.7711 9.89525 27.7713 10.8954C28.7715 11.8956 29.3334 13.2522 29.3334 14.6667V21.3333C29.3334 22.7478 28.7715 24.1044 27.7713 25.1046C26.7711 26.1048 25.4145 26.6667 24 26.6667H8.00002C6.58553 26.6667 5.22898 26.1048 4.22878 25.1046C3.22859 24.1044 2.66669 22.7478 2.66669 21.3333V14.6667C2.66669 13.2522 3.22859 11.8956 4.22878 10.8954C5.22898 9.89525 6.58553 9.33334 8.00002 9.33334H8.16802ZM16 22.6667C14.5855 22.6667 13.229 22.1048 12.2288 21.1046C11.2286 20.1044 10.6667 18.7478 10.6667 17.3333C10.6667 15.9189 11.2286 14.5623 12.2288 13.5621C13.229 12.5619 14.5855 12 16 12C17.4145 12 18.7711 12.5619 19.7713 13.5621C20.7715 14.5623 21.3334 15.9189 21.3334 17.3333C21.3334 18.7478 20.7715 20.1044 19.7713 21.1046C18.7711 22.1048 17.4145 22.6667 16 22.6667ZM16 20C16.7073 20 17.3855 19.7191 17.8856 19.219C18.3857 18.7189 18.6667 18.0406 18.6667 17.3333C18.6667 16.6261 18.3857 15.9478 17.8856 15.4477C17.3855 14.9476 16.7073 14.6667 16 14.6667C15.2928 14.6667 14.6145 14.9476 14.1144 15.4477C13.6143 15.9478 13.3334 16.6261 13.3334 17.3333C13.3334 18.0406 13.6143 18.7189 14.1144 19.219C14.6145 19.7191 15.2928 20 16 20ZM24 16C24.3536 16 24.6928 15.8595 24.9428 15.6095C25.1929 15.3594 25.3334 15.0203 25.3334 14.6667C25.3334 14.3131 25.1929 13.9739 24.9428 13.7239C24.6928 13.4738 24.3536 13.3333 24 13.3333C23.6464 13.3333 23.3073 13.4738 23.0572 13.7239C22.8072 13.9739 22.6667 14.3131 22.6667 14.6667C22.6667 15.0203 22.8072 15.3594 23.0572 15.6095C23.3073 15.8595 23.6464 16 24 16Z" fill="#EB068F"/>
</svg>
