<svg width="24" height="24" viewBox="0 0 24 24" fill="none" xmlns="http://www.w3.org/2000/svg">
<path d="M7.676 9H6C5.46957 9 4.96086 9.21071 4.58579 9.58579C4.21071 9.96086 4 10.4696 4 11V16C4 16.5304 4.21071 17.0391 4.58579 17.4142C4.96086 17.7893 5.46957 18 6 18H18C18.5304 18 19.0391 17.7893 19.4142 17.4142C19.7893 17.0391 20 16.5304 20 16V11C20 10.4696 19.7893 9.96086 19.4142 9.58579C19.0391 9.21071 18.5304 9 18 9H16.324L15.937 7.499C15.8256 7.06996 15.575 6.69001 15.2245 6.41873C14.8739 6.14745 14.4433 6.00017 14 6H10C9.55665 5.99983 9.12582 6.14698 8.7752 6.41831C8.42458 6.68965 8.17406 7.06979 8.063 7.499L7.676 9ZM6.126 7C6.57 5.275 8.136 4 10 4H14C14.8869 4.00012 15.7486 4.29482 16.4498 4.83783C17.151 5.38084 17.6519 6.14138 17.874 7H18C19.0609 7 20.0783 7.42143 20.8284 8.17157C21.5786 8.92172 22 9.93913 22 11V16C22 17.0609 21.5786 18.0783 20.8284 18.8284C20.0783 19.5786 19.0609 20 18 20H6C4.93913 20 3.92172 19.5786 3.17157 18.8284C2.42143 18.0783 2 17.0609 2 16V11C2 9.93913 2.42143 8.92172 3.17157 8.17157C3.92172 7.42143 4.93913 7 6 7H6.126ZM12 17C10.9391 17 9.92172 16.5786 9.17157 15.8284C8.42143 15.0783 8 14.0609 8 13C8 11.9391 8.42143 10.9217 9.17157 10.1716C9.92172 9.42143 10.9391 9 12 9C13.0609 9 14.0783 9.42143 14.8284 10.1716C15.5786 10.9217 16 11.9391 16 13C16 14.0609 15.5786 15.0783 14.8284 15.8284C14.0783 16.5786 13.0609 17 12 17ZM12 15C12.5304 15 13.0391 14.7893 13.4142 14.4142C13.7893 14.0391 14 13.5304 14 13C14 12.4696 13.7893 11.9609 13.4142 11.5858C13.0391 11.2107 12.5304 11 12 11C11.4696 11 10.9609 11.2107 10.5858 11.5858C10.2107 11.9609 10 12.4696 10 13C10 13.5304 10.2107 14.0391 10.5858 14.4142C10.9609 14.7893 11.4696 15 12 15ZM18 12C18.2652 12 18.5196 11.8946 18.7071 11.7071C18.8946 11.5196 19 11.2652 19 11C19 10.7348 18.8946 10.4804 18.7071 10.2929C18.5196 10.1054 18.2652 10 18 10C17.7348 10 17.4804 10.1054 17.2929 10.2929C17.1054 10.4804 17 10.7348 17 11C17 11.2652 17.1054 11.5196 17.2929 11.7071C17.4804 11.8946 17.7348 12 18 12Z" fill="#EB068F"/>
</svg>
