<svg width="32" height="32" viewBox="0 0 32 32" fill="none" xmlns="http://www.w3.org/2000/svg">
<path d="M13.9814 22.3067C13.8063 22.307 13.633 22.2728 13.4712 22.206C13.3094 22.1392 13.1625 22.0411 13.0387 21.9173L7.38269 16.26C7.25526 16.1371 7.15358 15.99 7.08359 15.8274C7.0136 15.6648 6.9767 15.4899 6.97503 15.3128C6.97337 15.1358 7.00698 14.9602 7.07391 14.7963C7.14083 14.6324 7.23973 14.4834 7.36483 14.3582C7.48993 14.2329 7.63873 14.1338 7.80254 14.0666C7.96636 13.9995 8.1419 13.9656 8.31894 13.967C8.49598 13.9684 8.67097 14.0051 8.83369 14.0748C8.99641 14.1446 9.1436 14.2461 9.26669 14.3733L13.98 19.0867L22.4667 10.6027C22.7167 10.3525 23.0559 10.2119 23.4096 10.2117C23.7632 10.2116 24.1025 10.352 24.3527 10.602C24.6029 10.852 24.7435 11.1912 24.7436 11.5449C24.7438 11.8986 24.6034 12.2378 24.3534 12.488L14.924 21.9173C14.8003 22.0411 14.6533 22.1392 14.4915 22.206C14.3297 22.2728 14.1564 22.307 13.9814 22.3067Z" fill="#EB068F"/>
</svg>
