<svg width="32" height="32" viewBox="0 0 32 32" fill="none" xmlns="http://www.w3.org/2000/svg">
<path d="M14.3427 16L20.9427 22.6C21.07 22.723 21.1716 22.8701 21.2415 23.0328C21.3113 23.1955 21.3481 23.3704 21.3497 23.5475C21.3512 23.7245 21.3175 23.9001 21.2504 24.0639C21.1834 24.2278 21.0844 24.3767 20.9592 24.5019C20.834 24.6271 20.6851 24.7261 20.5213 24.7931C20.3574 24.8601 20.1818 24.8939 20.0048 24.8923C19.8278 24.8908 19.6528 24.854 19.4901 24.7841C19.3275 24.7143 19.1803 24.6127 19.0573 24.4853L11.5147 16.9427C11.2647 16.6926 11.1243 16.3536 11.1243 16C11.1243 15.6464 11.2647 15.3074 11.5147 15.0573L19.0573 7.51467C19.3088 7.27179 19.6456 7.1374 19.9952 7.14044C20.3448 7.14347 20.6792 7.2837 20.9264 7.53091C21.1736 7.77812 21.3139 8.11254 21.3169 8.46213C21.3199 8.81173 21.1855 9.14853 20.9427 9.4L14.3427 16Z" fill="#EB068F"/>
</svg>
