<svg width="32" height="32" viewBox="0 0 32 32" fill="none" xmlns="http://www.w3.org/2000/svg">
<path d="M17.752 16.0947L11.152 9.49467C10.9091 9.2432 10.7747 8.90639 10.7778 8.5568C10.7808 8.2072 10.921 7.87279 11.1682 7.62557C11.4154 7.37836 11.7499 7.23814 12.0995 7.2351C12.4491 7.23206 12.7859 7.36646 13.0373 7.60933L20.58 15.152C20.83 15.402 20.9704 15.7411 20.9704 16.0947C20.9704 16.4482 20.83 16.7873 20.58 17.0373L13.0373 24.58C12.7859 24.8229 12.4491 24.9573 12.0995 24.9542C11.7499 24.9512 11.4154 24.811 11.1682 24.5638C10.921 24.3165 10.7808 23.9821 10.7778 23.6325C10.7747 23.2829 10.9091 22.9461 11.152 22.6947L17.752 16.0947Z" fill="#EB068F"/>
</svg>
