<svg width="32" height="32" viewBox="0 0 32 32" fill="none" xmlns="http://www.w3.org/2000/svg">
<path d="M8.00002 5.33333C7.29278 5.33333 6.6145 5.61428 6.1144 6.11438C5.61431 6.61448 5.33335 7.29275 5.33335 8V24C5.33335 24.7072 5.61431 25.3855 6.1144 25.8856C6.6145 26.3857 7.29278 26.6667 8.00002 26.6667H24C24.7073 26.6667 25.3855 26.3857 25.8856 25.8856C26.3857 25.3855 26.6667 24.7072 26.6667 24V8C26.6667 7.29275 26.3857 6.61448 25.8856 6.11438C25.3855 5.61428 24.7073 5.33333 24 5.33333H8.00002ZM8.00002 2.66666H24C25.4145 2.66666 26.7711 3.22857 27.7713 4.22876C28.7715 5.22896 29.3334 6.58551 29.3334 8V24C29.3334 25.4145 28.7715 26.771 27.7713 27.7712C26.7711 28.7714 25.4145 29.3333 24 29.3333H8.00002C6.58553 29.3333 5.22898 28.7714 4.22878 27.7712C3.22859 26.771 2.66669 25.4145 2.66669 24V8C2.66669 6.58551 3.22859 5.22896 4.22878 4.22876C5.22898 3.22857 6.58553 2.66666 8.00002 2.66666V2.66666Z" fill="#EB068F"/>
<path d="M17.8853 16L21.6573 19.7707C21.9075 20.0209 22.0481 20.3602 22.0481 20.714C22.0481 21.0678 21.9075 21.4071 21.6573 21.6573C21.4071 21.9075 21.0678 22.0481 20.714 22.0481C20.3602 22.0481 20.0208 21.9075 19.7706 21.6573L16 17.8853L12.2293 21.6573C11.9791 21.9075 11.6398 22.0481 11.286 22.0481C10.9322 22.0481 10.5928 21.9075 10.3426 21.6573C10.0925 21.4071 9.9519 21.0678 9.9519 20.714C9.9519 20.3602 10.0925 20.0209 10.3426 19.7707L14.1146 16L10.3426 12.2293C10.0925 11.9791 9.9519 11.6398 9.9519 11.286C9.9519 10.9322 10.0925 10.5929 10.3426 10.3427C10.5928 10.0925 10.9322 9.95193 11.286 9.95193C11.6398 9.95193 11.9791 10.0925 12.2293 10.3427L16 14.1147L19.7706 10.3427C20.0208 10.0925 20.3602 9.95193 20.714 9.95193C21.0678 9.95193 21.4071 10.0925 21.6573 10.3427C21.9075 10.5929 22.0481 10.9322 22.0481 11.286C22.0481 11.6398 21.9075 11.9791 21.6573 12.2293L17.8853 16Z" fill="#EB068F"/>
</svg>
