<svg width="32" height="32" viewBox="0 0 32 32" fill="none" xmlns="http://www.w3.org/2000/svg">
<path d="M15.1707 19.3333H25.3334C25.687 19.3333 26.0261 19.1929 26.2762 18.9428C26.5262 18.6928 26.6667 18.3536 26.6667 18V7.33334C26.6667 6.97972 26.5262 6.64058 26.2762 6.39053C26.0261 6.14049 25.687 6.00001 25.3334 6.00001H6.66669C6.31307 6.00001 5.97393 6.14049 5.72388 6.39053C5.47383 6.64058 5.33335 6.97972 5.33335 7.33334V18C5.33335 18.3536 5.47383 18.6928 5.72388 18.9428C5.97393 19.1929 6.31307 19.3333 6.66669 19.3333C7.02031 19.3333 7.35945 19.4738 7.6095 19.7239C7.85954 19.9739 8.00002 20.3131 8.00002 20.6667V24.684L15.1707 19.3333ZM6.66669 3.33334H25.3334C26.3942 3.33334 27.4116 3.75477 28.1618 4.50492C28.9119 5.25506 29.3334 6.27248 29.3334 7.33334V18C29.3334 19.0609 28.9119 20.0783 28.1618 20.8284C27.4116 21.5786 26.3942 22 25.3334 22H16.056L7.46402 28.4107C7.26574 28.5586 7.03021 28.6485 6.78377 28.6702C6.53734 28.6919 6.28972 28.6447 6.06861 28.5337C5.84751 28.4227 5.66163 28.2524 5.53178 28.0419C5.40193 27.8313 5.33323 27.5887 5.33335 27.3413V22C4.62611 22 3.94783 21.7191 3.44774 21.219C2.94764 20.7189 2.66669 20.0406 2.66669 19.3333V7.33334C2.66669 6.27248 3.08811 5.25506 3.83826 4.50492C4.58841 3.75477 5.60582 3.33334 6.66669 3.33334V3.33334Z" fill="#EB068F"/>
</svg>
