<svg width="32" height="32" viewBox="0 0 32 32" fill="none" xmlns="http://www.w3.org/2000/svg">
<path d="M17.3333 15.5213L18.828 14.028C19.0793 13.7849 19.416 13.6503 19.7656 13.6531C20.1152 13.6559 20.4497 13.7959 20.6971 14.0429C20.9445 14.2899 21.085 14.6243 21.0882 14.9739C21.0915 15.3235 20.9574 15.6603 20.7147 15.912L16.9427 19.684C16.8191 19.8082 16.6722 19.9068 16.5105 19.9741C16.3487 20.0414 16.1752 20.076 16 20.076C15.8248 20.076 15.6513 20.0414 15.4895 19.9741C15.3277 19.9068 15.1809 19.8082 15.0573 19.684L11.2853 15.912C11.1615 15.788 11.0634 15.6409 10.9964 15.479C10.9295 15.3171 10.8951 15.1436 10.8952 14.9684C10.8954 14.7932 10.93 14.6197 10.9972 14.4579C11.0643 14.2961 11.1627 14.1491 11.2867 14.0253C11.4106 13.9015 11.5578 13.8034 11.7197 13.7364C11.8816 13.6695 12.0551 13.6351 12.2303 13.6352C12.4055 13.6354 12.5789 13.67 12.7407 13.7372C12.9025 13.8043 13.0495 13.9027 13.1733 14.0267L14.6667 15.5213V7.99999C14.6667 7.64637 14.8071 7.30723 15.0572 7.05718C15.3072 6.80713 15.6464 6.66666 16 6.66666C16.3536 6.66666 16.6927 6.80713 16.9428 7.05718C17.1928 7.30723 17.3333 7.64637 17.3333 7.99999V15.5213ZM7.99999 22.6667H24C24.3536 22.6667 24.6928 22.8071 24.9428 23.0572C25.1928 23.3072 25.3333 23.6464 25.3333 24C25.3333 24.3536 25.1928 24.6928 24.9428 24.9428C24.6928 25.1928 24.3536 25.3333 24 25.3333H7.99999C7.64637 25.3333 7.30723 25.1928 7.05718 24.9428C6.80713 24.6928 6.66666 24.3536 6.66666 24C6.66666 23.6464 6.80713 23.3072 7.05718 23.0572C7.30723 22.8071 7.64637 22.6667 7.99999 22.6667Z" fill="#EB068F"/>
</svg>
