<svg width="32" height="32" viewBox="0 0 32 32" fill="none" xmlns="http://www.w3.org/2000/svg">
<path d="M23.1974 12.3067L25.16 10.344C27.6654 11.7893 29.3334 13.7867 29.3334 16C29.3334 20.4187 22.7227 23.9907 16 24C14.632 23.9999 13.2677 23.8569 11.9294 23.5733L14.2587 21.2453C14.8267 21.304 15.408 21.3347 15.996 21.3333H15.9987C15.4454 21.3333 14.912 21.2493 14.4107 21.0933L17.052 18.4507C17.6787 18.1813 18.1814 17.6787 18.452 17.052L21.092 14.4107C21.3406 15.2068 21.399 16.0502 21.2624 16.873C21.1259 17.6958 20.7983 18.4751 20.306 19.1484C19.8136 19.8216 19.1703 20.37 18.4275 20.7495C17.6848 21.1289 16.8634 21.3289 16.0294 21.3333C21.6894 21.3133 26.6667 18.4213 26.6667 16C26.6667 14.7427 25.304 13.352 23.1974 12.3067ZM10.7947 17.1667C10.6199 16.3872 10.6225 15.5785 10.8022 14.8001C10.9819 14.0218 11.3342 13.2938 11.833 12.6699C12.3317 12.0459 12.9643 11.542 13.6839 11.1952C14.4036 10.8485 15.1919 10.6679 15.9907 10.6667C10.3667 10.6467 5.33335 13.5707 5.33335 16C5.33335 17.1947 6.53869 18.5027 8.43602 19.5253L6.49202 21.4667C4.17869 20.0373 2.66669 18.1133 2.66669 16C2.66669 11.5813 9.31202 7.97733 16 8C17.2187 8.004 18.436 8.12533 19.612 8.34933L17.2427 10.7173C16.856 10.688 16.464 10.6707 16.0694 10.6667C16.4454 10.672 16.812 10.716 17.1667 10.7947L10.7934 17.1667H10.7947ZM28.1227 3.60933C28.3726 3.85937 28.5131 4.19845 28.5131 4.552C28.5131 4.90555 28.3726 5.24463 28.1227 5.49467L5.49602 28.1213C5.37311 28.2488 5.22606 28.3504 5.06344 28.4204C4.90082 28.4904 4.72588 28.5273 4.54885 28.529C4.37181 28.5307 4.19622 28.497 4.03231 28.4301C3.8684 28.3632 3.71946 28.2643 3.59419 28.1392C3.46891 28.0141 3.3698 27.8653 3.30264 27.7015C3.23549 27.5377 3.20163 27.3621 3.20304 27.1851C3.20445 27.008 3.2411 26.8331 3.31087 26.6703C3.38063 26.5076 3.4821 26.3604 3.60935 26.2373L26.236 3.61067C26.3599 3.4867 26.5069 3.38835 26.6688 3.32125C26.8306 3.25415 27.0041 3.21962 27.1794 3.21962C27.3546 3.21962 27.5281 3.25415 27.6899 3.32125C27.8518 3.38835 27.9989 3.4867 28.1227 3.61067V3.60933Z" fill="#EB068F"/>
</svg>
