<svg width="32" height="32" viewBox="0 0 32 32" fill="none" xmlns="http://www.w3.org/2000/svg">
<path d="M26.6667 16C26.6667 13.5867 21.6534 10.6867 15.9907 10.6667C10.3667 10.6467 5.33335 13.5707 5.33335 16C5.33335 18.4333 10.3387 21.3413 15.996 21.3333C21.6694 21.3253 26.6667 18.4267 26.6667 16ZM16 24C9.27735 24.0093 2.66669 20.4187 2.66669 16C2.66669 11.5813 9.31202 7.97733 16 8C22.688 8.02267 29.3334 11.5813 29.3334 16C29.3334 20.4187 22.7227 23.9907 16 24ZM16 21.3333C14.5855 21.3333 13.229 20.7714 12.2288 19.7712C11.2286 18.771 10.6667 17.4145 10.6667 16C10.6667 14.5855 11.2286 13.229 12.2288 12.2288C13.229 11.2286 14.5855 10.6667 16 10.6667C17.4145 10.6667 18.7711 11.2286 19.7713 12.2288C20.7715 13.229 21.3334 14.5855 21.3334 16C21.3334 17.4145 20.7715 18.771 19.7713 19.7712C18.7711 20.7714 17.4145 21.3333 16 21.3333ZM16 18.6667C16.7073 18.6667 17.3855 18.3857 17.8856 17.8856C18.3857 17.3855 18.6667 16.7072 18.6667 16C18.6667 15.2928 18.3857 14.6145 17.8856 14.1144C17.3855 13.6143 16.7073 13.3333 16 13.3333C15.2928 13.3333 14.6145 13.6143 14.1144 14.1144C13.6143 14.6145 13.3334 15.2928 13.3334 16C13.3334 16.7072 13.6143 17.3855 14.1144 17.8856C14.6145 18.3857 15.2928 18.6667 16 18.6667Z" fill="#EB068F"/>
</svg>
