<svg width="32" height="32" viewBox="0 0 32 32" fill="none" xmlns="http://www.w3.org/2000/svg">
<path d="M5.33332 13.3333V26.6667H21.3333V13.3333H5.33332ZM7.99999 10.6667V5.33334C7.99999 4.62609 8.28094 3.94782 8.78104 3.44772C9.28114 2.94762 9.95941 2.66667 10.6667 2.66667H26.6667C27.3739 2.66667 28.0522 2.94762 28.5523 3.44772C29.0524 3.94782 29.3333 4.62609 29.3333 5.33334V18.6667C29.3333 19.3739 29.0524 20.0522 28.5523 20.5523C28.0522 21.0524 27.3739 21.3333 26.6667 21.3333H24V26.6667C24 27.3739 23.719 28.0522 23.2189 28.5523C22.7188 29.0524 22.0406 29.3333 21.3333 29.3333H5.33332C4.62608 29.3333 3.9478 29.0524 3.44771 28.5523C2.94761 28.0522 2.66666 27.3739 2.66666 26.6667V13.3333C2.66666 12.6261 2.94761 11.9478 3.44771 11.4477C3.9478 10.9476 4.62608 10.6667 5.33332 10.6667H7.99999ZM10.6667 10.6667H21.3333C22.0406 10.6667 22.7188 10.9476 23.2189 11.4477C23.719 11.9478 24 12.6261 24 13.3333V18.6667H26.6667V5.33334H10.6667V10.6667ZM10.6667 22.6667C9.60579 22.6667 8.58838 22.2452 7.83823 21.4951C7.08808 20.745 6.66666 19.7275 6.66666 18.6667C6.66666 17.6058 7.08808 16.5884 7.83823 15.8382C8.58838 15.0881 9.60579 14.6667 10.6667 14.6667C11.7275 14.6667 12.7449 15.0881 13.4951 15.8382C14.2452 16.5884 14.6667 17.6058 14.6667 18.6667C14.6667 19.7275 14.2452 20.745 13.4951 21.4951C12.7449 22.2452 11.7275 22.6667 10.6667 22.6667ZM10.6667 20C11.0203 20 11.3594 19.8595 11.6095 19.6095C11.8595 19.3594 12 19.0203 12 18.6667C12 18.3131 11.8595 17.9739 11.6095 17.7239C11.3594 17.4738 11.0203 17.3333 10.6667 17.3333C10.313 17.3333 9.9739 17.4738 9.72385 17.7239C9.4738 17.9739 9.33332 18.3131 9.33332 18.6667C9.33332 19.0203 9.4738 19.3594 9.72385 19.6095C9.9739 19.8595 10.313 20 10.6667 20Z" fill="#EB068F"/>
<path d="M12 10.6667C12 9.60581 12.4214 8.58839 13.1716 7.83824C13.9217 7.0881 14.9391 6.66667 16 6.66667C17.0609 6.66667 18.0783 7.0881 18.8284 7.83824C19.5786 8.58839 20 9.60581 20 10.6667H17.3333C17.3333 10.313 17.1929 9.97391 16.9428 9.72386C16.6928 9.47381 16.3536 9.33334 16 9.33334C15.6464 9.33334 15.3072 9.47381 15.0572 9.72386C14.8071 9.97391 14.6667 10.313 14.6667 10.6667H12ZM14.4853 28.6907L18.1187 22.4613C18.2237 22.2809 18.3697 22.1277 18.5448 22.014C18.7199 21.9003 18.9192 21.8293 19.1268 21.8067C19.3343 21.7842 19.5443 21.8106 19.7397 21.884C19.9351 21.9574 20.1106 22.0757 20.252 22.2293L21.7013 23.808L23.6653 22.0027L22.2147 20.4253C21.7907 19.9644 21.2645 19.6094 20.6783 19.389C20.092 19.1685 19.4623 19.0888 18.8396 19.1563C18.217 19.2237 17.6189 19.4365 17.0935 19.7773C16.5681 20.1181 16.1301 20.5776 15.8147 21.1187L12.1813 27.3467L14.4853 28.6893V28.6907ZM23.168 11.3987C23.9167 11.1097 24.7351 11.0531 25.5164 11.2363C26.2977 11.4194 27.0057 11.8338 27.548 12.4253L28.9987 14.0027L27.0347 15.808L25.5853 14.2293C25.3885 14.0152 25.1271 13.8713 24.8409 13.8195C24.5546 13.7677 24.2593 13.811 24 13.9427V13.3333C24 12.572 23.68 11.884 23.168 11.3987Z" fill="#EB068F"/>
</svg>
