<svg width="32" height="32" viewBox="0 0 32 32" fill="none" xmlns="http://www.w3.org/2000/svg">
<path d="M9.33333 18.6667V26.6667H22.6667V18.6667H9.33333ZM24.5827 10.7307C25.1741 10.8631 25.7028 11.193 26.0816 11.6661C26.4604 12.1392 26.6668 12.7273 26.6667 13.3333V16C26.6667 16.4726 26.5412 16.9367 26.3029 17.3448C26.0647 17.7529 25.7222 18.0904 25.3107 18.3227C25.3253 18.4347 25.3333 18.5493 25.3333 18.6667V26.6667C25.3333 27.3739 25.0524 28.0522 24.5523 28.5523C24.0522 29.0524 23.3739 29.3333 22.6667 29.3333H9.33333C8.62608 29.3333 7.94781 29.0524 7.44771 28.5523C6.94761 28.0522 6.66666 27.3739 6.66666 26.6667V18.6667C6.66666 18.5507 6.67466 18.4347 6.68933 18.3227C6.27777 18.0904 5.93533 17.7529 5.69706 17.3448C5.4588 16.9367 5.33327 16.4726 5.33333 16V13.3333C5.33323 12.7273 5.53959 12.1392 5.91841 11.6661C6.29722 11.193 6.8259 10.8631 7.41733 10.7307C6.73469 9.5888 6.50345 8.23303 6.76899 6.92945C7.03453 5.62586 7.77768 4.46858 8.85259 3.68473C9.92751 2.90088 11.2566 2.54707 12.5789 2.69272C13.9013 2.83837 15.1215 3.47298 16 4.47199C16.8785 3.47298 18.0987 2.83837 19.4211 2.69272C20.7434 2.54707 22.0725 2.90088 23.1474 3.68473C24.2223 4.46858 24.9655 5.62586 25.231 6.92945C25.4965 8.23303 25.2653 9.5888 24.5827 10.7307ZM24 13.3333H7.99999V16H24V13.3333ZM14.6667 7.99999C14.6667 7.47258 14.5103 6.957 14.2172 6.51847C13.9242 6.07994 13.5078 5.73815 13.0205 5.53631C12.5332 5.33448 11.997 5.28167 11.4798 5.38457C10.9625 5.48746 10.4873 5.74144 10.1144 6.11438C9.74144 6.48732 9.48746 6.96247 9.38457 7.47975C9.28167 7.99704 9.33448 8.53321 9.53632 9.02048C9.73815 9.50775 10.0799 9.92423 10.5185 10.2172C10.957 10.5103 11.4726 10.6667 12 10.6667H14.6667V7.99999ZM17.3333 10.6667H20C20.5274 10.6667 21.043 10.5103 21.4815 10.2172C21.92 9.92423 22.2618 9.50775 22.4637 9.02048C22.6655 8.53321 22.7183 7.99704 22.6154 7.47975C22.5125 6.96247 22.2586 6.48732 21.8856 6.11438C21.5127 5.74144 21.0375 5.48746 20.5202 5.38457C20.003 5.28167 19.4668 5.33448 18.9795 5.53631C18.4922 5.73815 18.0758 6.07994 17.7827 6.51847C17.4897 6.957 17.3333 7.47258 17.3333 7.99999V10.6667ZM14.6667 12H17.3333V28H14.6667V12Z" fill="#EB068F"/>
</svg>
