<svg width="24" height="24" viewBox="0 0 24 24" fill="none" xmlns="http://www.w3.org/2000/svg">
<path d="M7 14V20H17V14H7ZM18.437 8.048C18.8806 8.14732 19.2771 8.39477 19.5612 8.7496C19.8453 9.10442 20.0001 9.54544 20 10V12C20 12.3544 19.9059 12.7025 19.7272 13.0086C19.5485 13.3147 19.2917 13.5678 18.983 13.742C18.994 13.826 19 13.912 19 14V20C19 20.5304 18.7893 21.0391 18.4142 21.4142C18.0391 21.7893 17.5304 22 17 22H7C6.46957 22 5.96086 21.7893 5.58579 21.4142C5.21071 21.0391 5 20.5304 5 20V14C5 13.913 5.006 13.826 5.017 13.742C4.70833 13.5678 4.4515 13.3147 4.2728 13.0086C4.0941 12.7025 3.99996 12.3544 4 12V10C3.99993 9.54544 4.1547 9.10442 4.43881 8.7496C4.72292 8.39477 5.11943 8.14732 5.563 8.048C5.05102 7.1916 4.87759 6.17477 5.07675 5.19708C5.2759 4.21939 5.83327 3.35143 6.63945 2.76355C7.44563 2.17566 8.44242 1.9103 9.43419 2.01954C10.426 2.12878 11.3411 2.60474 12 3.354C12.6589 2.60474 13.574 2.12878 14.5658 2.01954C15.5576 1.9103 16.5544 2.17566 17.3605 2.76355C18.1667 3.35143 18.7241 4.21939 18.9233 5.19708C19.1224 6.17477 18.949 7.1916 18.437 8.048ZM18 10H6V12H18V10ZM11 6C11 5.60443 10.8827 5.21775 10.6629 4.88885C10.4432 4.55996 10.1308 4.30361 9.76537 4.15224C9.39991 4.00086 8.99778 3.96125 8.60982 4.03842C8.22186 4.1156 7.86549 4.30608 7.58579 4.58578C7.30608 4.86549 7.1156 5.22185 7.03843 5.60981C6.96126 5.99778 7.00087 6.39991 7.15224 6.76536C7.30362 7.13081 7.55996 7.44317 7.88886 7.66293C8.21776 7.8827 8.60444 8 9 8H11V6ZM13 8H15C15.3956 8 15.7822 7.8827 16.1111 7.66293C16.44 7.44317 16.6964 7.13081 16.8478 6.76536C16.9991 6.39991 17.0387 5.99778 16.9616 5.60981C16.8844 5.22185 16.6939 4.86549 16.4142 4.58578C16.1345 4.30608 15.7781 4.1156 15.3902 4.03842C15.0022 3.96125 14.6001 4.00086 14.2346 4.15224C13.8692 4.30361 13.5568 4.55996 13.3371 4.88885C13.1173 5.21775 13 5.60443 13 6V8ZM11 9H13V21H11V9Z" fill="#EB068F"/>
</svg>
