<svg width="32" height="32" viewBox="0 0 32 32" fill="none" xmlns="http://www.w3.org/2000/svg">
<path d="M5.33332 5.33332V10.6667H10.6667V5.33332H5.33332ZM5.33332 2.66666H10.6667C11.3739 2.66666 12.0522 2.94761 12.5523 3.44771C13.0524 3.9478 13.3333 4.62608 13.3333 5.33332V10.6667C13.3333 11.3739 13.0524 12.0522 12.5523 12.5523C12.0522 13.0524 11.3739 13.3333 10.6667 13.3333H5.33332C4.62608 13.3333 3.9478 13.0524 3.44771 12.5523C2.94761 12.0522 2.66666 11.3739 2.66666 10.6667V5.33332C2.66666 4.62608 2.94761 3.9478 3.44771 3.44771C3.9478 2.94761 4.62608 2.66666 5.33332 2.66666V2.66666ZM21.3333 2.66666H26.6667C27.3739 2.66666 28.0522 2.94761 28.5523 3.44771C29.0524 3.9478 29.3333 4.62608 29.3333 5.33332V10.6667C29.3333 11.3739 29.0524 12.0522 28.5523 12.5523C28.0522 13.0524 27.3739 13.3333 26.6667 13.3333H21.3333C20.6261 13.3333 19.9478 13.0524 19.4477 12.5523C18.9476 12.0522 18.6667 11.3739 18.6667 10.6667V5.33332C18.6667 4.62608 18.9476 3.9478 19.4477 3.44771C19.9478 2.94761 20.6261 2.66666 21.3333 2.66666V2.66666ZM21.3333 5.33332V10.6667H26.6667V5.33332H21.3333ZM21.3333 18.6667H26.6667C27.3739 18.6667 28.0522 18.9476 28.5523 19.4477C29.0524 19.9478 29.3333 20.6261 29.3333 21.3333V26.6667C29.3333 27.3739 29.0524 28.0522 28.5523 28.5523C28.0522 29.0524 27.3739 29.3333 26.6667 29.3333H21.3333C20.6261 29.3333 19.9478 29.0524 19.4477 28.5523C18.9476 28.0522 18.6667 27.3739 18.6667 26.6667V21.3333C18.6667 20.6261 18.9476 19.9478 19.4477 19.4477C19.9478 18.9476 20.6261 18.6667 21.3333 18.6667ZM21.3333 21.3333V26.6667H26.6667V21.3333H21.3333ZM5.33332 18.6667H10.6667C11.3739 18.6667 12.0522 18.9476 12.5523 19.4477C13.0524 19.9478 13.3333 20.6261 13.3333 21.3333V26.6667C13.3333 27.3739 13.0524 28.0522 12.5523 28.5523C12.0522 29.0524 11.3739 29.3333 10.6667 29.3333H5.33332C4.62608 29.3333 3.9478 29.0524 3.44771 28.5523C2.94761 28.0522 2.66666 27.3739 2.66666 26.6667V21.3333C2.66666 20.6261 2.94761 19.9478 3.44771 19.4477C3.9478 18.9476 4.62608 18.6667 5.33332 18.6667ZM5.33332 21.3333V26.6667H10.6667V21.3333H5.33332Z" fill="#EB068F"/>
</svg>
