<svg width="24" height="24" viewBox="0 0 24 24" fill="none" xmlns="http://www.w3.org/2000/svg">
<path d="M5.63603 11.208L12 17.572L18.364 11.208C18.9267 10.6453 19.2428 9.8822 19.2428 9.08649C19.2428 8.29077 18.9267 7.52764 18.364 6.96499C18.0854 6.68639 17.7547 6.46539 17.3907 6.31461C17.0267 6.16384 16.6365 6.08623 16.2425 6.08623C15.4468 6.08623 14.6837 6.40233 14.121 6.96499L12 9.08599L9.87903 6.96599C9.31494 6.41088 8.55435 6.10116 7.76294 6.10429C6.97153 6.10742 6.21341 6.42314 5.65373 6.98269C5.09404 7.54224 4.77814 8.30028 4.77482 9.0917C4.77151 9.88311 5.08105 10.6438 5.63603 11.208ZM11.293 5.54999L12 6.25699L12.707 5.54999C13.1706 5.08236 13.7219 4.71089 14.3294 4.45692C14.9369 4.20294 15.5886 4.07146 16.2471 4.07002C16.9055 4.06857 17.5578 4.1972 18.1664 4.44851C18.775 4.69983 19.3279 5.06887 19.7935 5.53447C20.2591 6.00007 20.6282 6.55304 20.8795 7.16165C21.1308 7.77025 21.2594 8.4225 21.258 9.08095C21.2566 9.7394 21.1251 10.3911 20.8711 10.9986C20.6171 11.6061 20.2457 12.1574 19.778 12.621L12.708 19.692C12.6152 19.785 12.5049 19.8587 12.3835 19.909C12.2621 19.9594 12.1319 19.9853 12.0005 19.9853C11.8691 19.9853 11.739 19.9594 11.6176 19.909C11.4962 19.8587 11.3859 19.785 11.293 19.692L4.22203 12.622C3.74804 12.1599 3.37051 11.6083 3.11135 10.9992C2.8522 10.3901 2.71656 9.73565 2.71232 9.07372C2.70808 8.41179 2.83532 7.75561 3.08665 7.14324C3.33798 6.53087 3.70841 5.9745 4.17644 5.5064C4.64447 5.03831 5.20078 4.6678 5.81312 4.41638C6.42546 4.16497 7.08162 4.03764 7.74355 4.04179C8.40548 4.04593 9.05999 4.18147 9.66913 4.44055C10.2783 4.69962 10.8299 5.07706 11.292 5.55099L11.293 5.54999Z" fill="#EB068F"/>
</svg>
