<svg width="32" height="32" viewBox="0 0 32 32" fill="none" xmlns="http://www.w3.org/2000/svg">
<path d="M15.0573 7.40001L16 8.34401L16.9427 7.40135C17.5608 6.77784 18.2959 6.28255 19.1059 5.94392C19.9159 5.60528 20.7848 5.42997 21.6627 5.42805C22.5407 5.42613 23.4103 5.59763 24.2218 5.93272C25.0333 6.2678 25.7706 6.75986 26.3914 7.38066C27.0122 8.00145 27.5042 8.73875 27.8393 9.55022C28.1744 10.3617 28.3459 11.2314 28.344 12.1093C28.3421 12.9872 28.1667 13.8561 27.8281 14.6661C27.4895 15.4761 26.9942 16.2113 26.3707 16.8293L16.944 26.2573C16.8202 26.3813 16.6731 26.4797 16.5113 26.5468C16.3494 26.6139 16.1759 26.6484 16.0007 26.6484C15.8255 26.6484 15.652 26.6139 15.4901 26.5468C15.3282 26.4797 15.1812 26.3813 15.0573 26.2573L5.62935 16.8293C4.99736 16.2133 4.494 15.4778 4.14845 14.6657C3.80291 13.8536 3.62206 12.9809 3.61641 12.0983C3.61075 11.2158 3.7804 10.3408 4.11551 9.52435C4.45062 8.70786 4.94452 7.96603 5.56856 7.3419C6.1926 6.71777 6.93436 6.22377 7.75081 5.88854C8.56725 5.55332 9.44214 5.38355 10.3247 5.38908C11.2073 5.39461 12.08 5.57533 12.8922 5.92076C13.7043 6.26619 14.4398 6.76945 15.056 7.40135L15.0573 7.40001Z" fill="#EB068F"/>
</svg>
