<svg width="24" height="24" viewBox="0 0 24 24" fill="none" xmlns="http://www.w3.org/2000/svg">
<path d="M11.293 5.54999L12 6.25799L12.707 5.55099C13.1706 5.08336 13.7219 4.71189 14.3294 4.45792C14.9369 4.20394 15.5886 4.07246 16.2471 4.07102C16.9055 4.06957 17.5578 4.1982 18.1664 4.44951C18.775 4.70083 19.3279 5.06987 19.7935 5.53547C20.2591 6.00107 20.6282 6.55404 20.8795 7.16265C21.1308 7.77125 21.2594 8.4235 21.258 9.08195C21.2566 9.7404 21.1251 10.3921 20.8711 10.9996C20.6171 11.6071 20.2457 12.1584 19.778 12.622L12.708 19.693C12.6152 19.786 12.5049 19.8597 12.3835 19.91C12.2621 19.9604 12.1319 19.9863 12.0005 19.9863C11.8691 19.9863 11.739 19.9604 11.6176 19.91C11.4962 19.8597 11.3859 19.786 11.293 19.693L4.22203 12.622C3.74804 12.1599 3.37051 11.6083 3.11135 10.9992C2.8522 10.3901 2.71656 9.73565 2.71232 9.07372C2.70808 8.41179 2.83532 7.75561 3.08665 7.14324C3.33798 6.53087 3.70841 5.9745 4.17644 5.5064C4.64447 5.03831 5.20078 4.6678 5.81312 4.41638C6.42546 4.16497 7.08162 4.03764 7.74355 4.04179C8.40548 4.04593 9.05999 4.18147 9.66913 4.44055C10.2783 4.69962 10.8299 5.07706 11.292 5.55099L11.293 5.54999Z" fill="#EB068F"/>
</svg>
