<svg width="32" height="32" viewBox="0 0 32 32" fill="none" xmlns="http://www.w3.org/2000/svg">
<path d="M7.51468 14.944L16 23.4293L24.4853 14.944C25.2356 14.1938 25.657 13.1763 25.657 12.1153C25.657 11.0544 25.2356 10.0369 24.4853 9.28668C24.1139 8.91521 23.6729 8.62055 23.1875 8.41952C22.7022 8.21848 22.182 8.11501 21.6567 8.11501C20.5957 8.11501 19.5782 8.53647 18.828 9.28668L16 12.1147L13.172 9.28801C12.4199 8.54787 11.4058 8.13491 10.3506 8.13908C9.29535 8.14325 8.28453 8.56422 7.53828 9.31029C6.79204 10.0564 6.37083 11.0671 6.36641 12.1223C6.36199 13.1775 6.77471 14.1917 7.51468 14.944ZM15.0573 7.40001L16 8.34268L16.9427 7.40001C17.5608 6.77651 18.2959 6.28122 19.1059 5.94258C19.9159 5.60395 20.7848 5.42864 21.6627 5.42672C22.5407 5.4248 23.4103 5.5963 24.2218 5.93138C25.0333 6.26647 25.7706 6.75853 26.3914 7.37932C27.0122 8.00012 27.5042 8.73742 27.8393 9.54889C28.1744 10.3604 28.3459 11.23 28.344 12.108C28.3421 12.9859 28.1667 13.8548 27.8281 14.6648C27.4895 15.4748 26.9942 16.2099 26.3707 16.828L16.944 26.256C16.8202 26.38 16.6731 26.4783 16.5113 26.5454C16.3494 26.6125 16.1759 26.6471 16.0007 26.6471C15.8255 26.6471 15.652 26.6125 15.4901 26.5454C15.3282 26.4783 15.1812 26.38 15.0573 26.256L5.62935 16.8293C4.99736 16.2133 4.494 15.4778 4.14845 14.6657C3.80291 13.8536 3.62206 12.9809 3.61641 12.0983C3.61075 11.2158 3.7804 10.3408 4.11551 9.52435C4.45062 8.70786 4.94452 7.96603 5.56856 7.3419C6.1926 6.71777 6.93436 6.22377 7.75081 5.88854C8.56725 5.55332 9.44214 5.38355 10.3247 5.38908C11.2073 5.39461 12.08 5.57533 12.8922 5.92076C13.7043 6.26619 14.4398 6.76945 15.056 7.40135L15.0573 7.40001Z" fill="#EB068F"/>
</svg>
