<svg width="32" height="32" viewBox="0 0 32 32" fill="none" xmlns="http://www.w3.org/2000/svg">
<path d="M27.2173 5.2L5.50934 13.6347L11.948 16.3093C13.83 17.09 15.3253 18.5857 16.1053 20.468L18.78 26.9053L27.2173 5.2ZM29.68 6.10934L21.2427 27.8173C20.7093 29.1907 19.1747 29.8933 17.8147 29.3907C17.4833 29.2683 17.1808 29.0787 16.9261 28.8339C16.6714 28.5891 16.47 28.2943 16.3347 27.968L13.6587 21.528C13.1381 20.2738 12.1412 19.2773 10.8867 18.7573L4.44934 16.0827C3.11067 15.5267 2.5 13.9813 3.08534 12.6293C3.22914 12.2989 3.43687 12.0001 3.69659 11.7502C3.95631 11.5003 4.26289 11.3043 4.59867 11.1733L26.3067 2.736C26.7783 2.54648 27.2951 2.4997 27.7931 2.60149C28.291 2.70328 28.7481 2.94914 29.1075 3.30852C29.4669 3.66791 29.7127 4.12497 29.8145 4.62292C29.9163 5.12087 29.8695 5.63775 29.68 6.10934Z" fill="#EB068F"/>
</svg>
