<svg width="24" height="24" viewBox="0 0 24 24" fill="none" xmlns="http://www.w3.org/2000/svg">
<path d="M20.413 3.9L4.132 10.226L8.961 12.232C10.3725 12.8175 11.494 13.9393 12.079 15.351L14.085 20.179L20.413 3.9ZM22.26 4.582L15.932 20.863C15.532 21.893 14.381 22.42 13.361 22.043C13.1125 21.9512 12.8856 21.8091 12.6946 21.6254C12.5035 21.4418 12.3525 21.2207 12.251 20.976L10.244 16.146C9.85357 15.2053 9.10586 14.458 8.165 14.068L3.337 12.062C2.333 11.645 1.875 10.486 2.314 9.472C2.42185 9.22414 2.57765 9.00006 2.77244 8.81265C2.96723 8.62524 3.19716 8.4782 3.449 8.38L19.73 2.052C20.0837 1.90986 20.4713 1.87478 20.8448 1.95112C21.2183 2.02746 21.5611 2.21185 21.8306 2.48139C22.1001 2.75093 22.2845 3.09373 22.3609 3.46719C22.4372 3.84065 22.4021 4.22831 22.26 4.582Z" fill="#EB068F"/>
</svg>
