<svg width="32" height="32" viewBox="0 0 32 32" fill="none" xmlns="http://www.w3.org/2000/svg">
<path d="M7.54132 27.3053C7.34988 27.4718 7.11493 27.5802 6.86404 27.6178C6.61315 27.6554 6.35673 27.6206 6.12491 27.5176C5.89308 27.4146 5.69546 27.2475 5.55525 27.0361C5.41503 26.8247 5.33804 26.5776 5.33332 26.324V23.3333C4.62608 23.3333 3.9478 23.0524 3.44771 22.5523C2.94761 22.0522 2.66666 21.3739 2.66666 20.6667V11.3333C2.66666 10.6261 2.94761 9.9478 3.44771 9.4477C3.9478 8.94761 4.62608 8.66666 5.33332 8.66666H20C20.7072 8.66666 21.3855 8.94761 21.8856 9.4477C22.3857 9.9478 22.6667 10.6261 22.6667 11.3333V20.6667C22.6667 21.3739 22.3857 22.0522 21.8856 22.5523C21.3855 23.0524 20.7072 23.3333 20 23.3333H13.3373L7.54132 27.3053ZM8.66666 23.1813C8.78815 23.1806 8.90747 23.149 9.01332 23.0893L12.1533 20.9053C12.3768 20.7499 12.6425 20.6666 12.9147 20.6667H18.6667C19.0203 20.6667 19.3594 20.5262 19.6095 20.2761C19.8595 20.0261 20 19.6869 20 19.3333V12.6667C20 12.313 19.8595 11.9739 19.6095 11.7238C19.3594 11.4738 19.0203 11.3333 18.6667 11.3333H6.66666C6.31303 11.3333 5.9739 11.4738 5.72385 11.7238C5.4738 11.9739 5.33332 12.313 5.33332 12.6667V19.3333C5.33332 20.0533 5.90532 20.6427 6.66666 20.6667C7.21332 20.688 7.60932 20.7773 7.79199 20.968C7.96266 21.1467 7.97199 21.448 7.99999 22.0213C8.00399 22.1053 8.00399 22.2573 7.99999 22.5147C7.99999 22.6915 8.07023 22.861 8.19525 22.9861C8.32028 23.1111 8.48985 23.1813 8.66666 23.1813Z" fill="#EB068F"/>
<path d="M24 16.6893C23.9958 16.8533 23.9958 17.0174 24 17.1813V16.688C24.0267 16.1147 24.0373 15.8133 24.208 15.6347C24.3907 15.444 24.7867 15.3547 25.3333 15.3333C26.0947 15.3093 26.6667 14.72 26.6667 14V7.33334C26.6667 6.97972 26.5262 6.64058 26.2761 6.39053C26.0261 6.14049 25.687 6.00001 25.3333 6.00001H13.3333C12.9797 6.00001 12.6406 6.14049 12.3905 6.39053C12.1405 6.64058 12 6.97972 12 7.33334H9.33333V6.00001C9.33333 5.29277 9.61428 4.61449 10.1144 4.11439C10.6145 3.6143 11.2928 3.33334 12 3.33334H26.6667C27.3739 3.33334 28.0522 3.6143 28.5523 4.11439C29.0524 4.61449 29.3333 5.29277 29.3333 6.00001V15.3333C29.3333 16.0406 29.0524 16.7189 28.5523 17.219C28.0522 17.7191 27.3739 18 26.6667 18V20.9907C26.6619 21.2443 26.585 21.4914 26.4447 21.7028C26.3045 21.9142 26.1069 22.0812 25.8751 22.1843C25.6432 22.2873 25.3868 22.3221 25.1359 22.2845C24.8851 22.2469 24.6501 22.1385 24.4587 21.972L24 21.6573V16.6893Z" fill="#EB068F"/>
</svg>
