<svg width="32" height="32" viewBox="0 0 32 32" fill="none" xmlns="http://www.w3.org/2000/svg">
<path d="M22.2213 18.376L21.3333 17.5813V10.6667C21.3333 9.25218 20.7714 7.89562 19.7712 6.89543C18.771 5.89523 17.4145 5.33333 16 5.33333C14.5855 5.33333 13.229 5.89523 12.2288 6.89543C11.2286 7.89562 10.6667 9.25218 10.6667 10.6667V17.5813L9.77867 18.376C8.49007 19.5259 7.5465 21.0115 7.05334 22.6667H24.9467C24.4535 21.0115 23.5099 19.5259 22.2213 18.376ZM20 25.3333C20 26.3942 19.5786 27.4116 18.8284 28.1618C18.0783 28.9119 17.0609 29.3333 16 29.3333C14.9391 29.3333 13.9217 28.9119 13.1716 28.1618C12.4214 27.4116 12 26.3942 12 25.3333H4.00001C3.99819 23.6447 4.35366 21.9748 5.04305 20.4334C5.73244 18.8919 6.74016 17.5137 8.00001 16.3893V10.6667C8.00001 8.54493 8.84286 6.5101 10.3432 5.00981C11.8434 3.50952 13.8783 2.66666 16 2.66666C18.1217 2.66666 20.1566 3.50952 21.6569 5.00981C23.1572 6.5101 24 8.54493 24 10.6667V16.3893C25.2599 17.5137 26.2676 18.8919 26.957 20.4334C27.6464 21.9748 28.0018 23.6447 28 25.3333H20ZM16 26.6667C16.3536 26.6667 16.6928 26.5262 16.9428 26.2761C17.1929 26.0261 17.3333 25.687 17.3333 25.3333H14.6667C14.6667 25.687 14.8071 26.0261 15.0572 26.2761C15.3072 26.5262 15.6464 26.6667 16 26.6667Z" fill="#EB068F"/>
</svg>
