<svg width="32" height="32" viewBox="0 0 32 32" fill="none" xmlns="http://www.w3.org/2000/svg">
<path d="M26.6667 16.6707V9.33334C26.6667 8.97972 26.5262 8.64058 26.2762 8.39053C26.0261 8.14049 25.687 8.00001 25.3334 8.00001H6.66669C6.31307 8.00001 5.97393 8.14049 5.72388 8.39053C5.47383 8.64058 5.33335 8.97972 5.33335 9.33334V22.6667C5.33335 23.0203 5.47383 23.3594 5.72388 23.6095C5.97393 23.8595 6.31307 24 6.66669 24H11.3387L17.192 14.2373C17.5044 13.7166 17.9313 13.2738 18.4402 12.9425C18.9492 12.6113 19.5269 12.4002 20.1296 12.3255C20.7322 12.2507 21.344 12.3141 21.9185 12.5109C22.493 12.7077 23.0152 13.0327 23.4454 13.4613L26.6667 16.6707ZM26.6667 20.4347L21.5627 15.3493C21.4192 15.2066 21.2451 15.0984 21.0536 15.033C20.8621 14.9675 20.6582 14.9465 20.4573 14.9716C20.2565 14.9967 20.064 15.0671 19.8945 15.1776C19.7249 15.2881 19.5827 15.4357 19.4787 15.6093L14.448 24H25.3334C25.687 24 26.0261 23.8595 26.2762 23.6095C26.5262 23.3594 26.6667 23.0203 26.6667 22.6667V20.4347ZM6.66669 5.33334H25.3334C26.3942 5.33334 27.4116 5.75477 28.1618 6.50492C28.9119 7.25506 29.3334 8.27248 29.3334 9.33334V22.6667C29.3334 23.7275 28.9119 24.745 28.1618 25.4951C27.4116 26.2453 26.3942 26.6667 25.3334 26.6667H6.66669C5.60582 26.6667 4.58841 26.2453 3.83826 25.4951C3.08811 24.745 2.66669 23.7275 2.66669 22.6667L2.66669 9.33334C2.66669 8.27248 3.08811 7.25506 3.83826 6.50492C4.58841 5.75477 5.60582 5.33334 6.66669 5.33334V5.33334ZM10.6667 17.3333C9.60582 17.3333 8.58841 16.9119 7.83826 16.1618C7.08811 15.4116 6.66669 14.3942 6.66669 13.3333C6.66669 12.2725 7.08811 11.2551 7.83826 10.5049C8.58841 9.75477 9.60582 9.33334 10.6667 9.33334C11.7276 9.33334 12.745 9.75477 13.4951 10.5049C14.2453 11.2551 14.6667 12.2725 14.6667 13.3333C14.6667 14.3942 14.2453 15.4116 13.4951 16.1618C12.745 16.9119 11.7276 17.3333 10.6667 17.3333ZM10.6667 14.6667C11.0203 14.6667 11.3594 14.5262 11.6095 14.2762C11.8595 14.0261 12 13.687 12 13.3333C12 12.9797 11.8595 12.6406 11.6095 12.3905C11.3594 12.1405 11.0203 12 10.6667 12C10.3131 12 9.97393 12.1405 9.72388 12.3905C9.47383 12.6406 9.33335 12.9797 9.33335 13.3333C9.33335 13.687 9.47383 14.0261 9.72388 14.2762C9.97393 14.5262 10.3131 14.6667 10.6667 14.6667Z" fill="#EB068F"/>
</svg>
