<svg width="32" height="32" viewBox="0 0 32 32" fill="none" xmlns="http://www.w3.org/2000/svg">
<path d="M14 22C15.0506 22 16.0909 21.7931 17.0615 21.391C18.0321 20.989 18.914 20.3997 19.6569 19.6569C20.3997 18.914 20.989 18.0321 21.391 17.0615C21.7931 16.0909 22 15.0506 22 14C22 12.9494 21.7931 11.9091 21.391 10.9385C20.989 9.96793 20.3997 9.08601 19.6569 8.34315C18.914 7.60028 18.0321 7.011 17.0615 6.60896C16.0909 6.20693 15.0506 6 14 6C11.8783 6 9.84345 6.84285 8.34316 8.34315C6.84286 9.84344 6.00001 11.8783 6.00001 14C6.00001 16.1217 6.84286 18.1566 8.34316 19.6569C9.84345 21.1571 11.8783 22 14 22ZM22.4267 20.5413L27.2 25.3147C27.3273 25.4378 27.4287 25.585 27.4985 25.7477C27.5683 25.9104 27.6049 26.0854 27.6063 26.2624C27.6077 26.4395 27.5739 26.615 27.5067 26.7788C27.4396 26.9426 27.3405 27.0914 27.2152 27.2165C27.0899 27.3416 26.941 27.4405 26.7771 27.5074C26.6131 27.5744 26.4376 27.608 26.2605 27.6063C26.0835 27.6047 25.9085 27.5678 25.7459 27.4978C25.5833 27.4278 25.4363 27.3261 25.3133 27.1987L20.54 22.4253C18.3966 24.0891 15.6997 24.8736 12.9983 24.6189C10.297 24.3643 7.79415 23.0898 5.99941 21.0547C4.20467 19.0197 3.25292 16.3773 3.33791 13.6652C3.4229 10.9532 4.53824 8.3755 6.45687 6.45686C8.37551 4.53823 10.9532 3.42289 13.6652 3.3379C16.3773 3.25291 19.0198 4.20466 21.0548 5.9994C23.0898 7.79414 24.3643 10.297 24.6189 12.9983C24.8736 15.6997 24.0891 18.3966 22.4253 20.54L22.4267 20.5413Z" fill="#EB068F"/>
</svg>
