<svg width="32" height="32" viewBox="0 0 32 32" fill="none" xmlns="http://www.w3.org/2000/svg">
<path d="M25.2094 8.58668L15.0027 18.7933C15.3054 19.2267 15.5627 19.6947 15.7694 20.1907L18.316 26.3227L25.2094 8.58535V8.58668ZM13.2067 16.9973L23.4147 6.78935L5.67735 13.6827L11.8094 16.2307C12.3016 16.4348 12.7701 16.6919 13.2067 16.9973ZM28.6974 6.51468L20.6614 27.1894C20.1547 28.496 18.692 29.1667 17.396 28.688C17.0803 28.5713 16.7922 28.3907 16.5496 28.1573C16.3071 27.924 16.1154 27.643 15.9867 27.332L13.44 21.2C12.9445 20.005 11.995 19.0555 10.8 18.56L4.66668 16.0133C3.39468 15.484 2.81335 14.0133 3.37068 12.7253C3.50734 12.4106 3.70494 12.1261 3.95208 11.8881C4.19923 11.6501 4.49104 11.4634 4.81068 11.3387L25.4854 3.30001C25.9346 3.11898 26.4271 3.07405 26.9017 3.17083C27.3763 3.2676 27.8119 3.5018 28.1544 3.84428C28.4969 4.18677 28.7311 4.6224 28.8279 5.09698C28.9246 5.57156 28.8797 6.06411 28.6987 6.51335L28.6974 6.51468Z" fill="#EB068F"/>
</svg>
