<svg width="24" height="24" viewBox="0 0 24 24" fill="none" xmlns="http://www.w3.org/2000/svg">
<path d="M18.907 6.44L11.252 14.095C11.479 14.42 11.672 14.771 11.827 15.143L13.737 19.742L18.907 6.439V6.44ZM9.90503 12.748L17.561 5.092L4.25803 10.262L8.85703 12.173C9.22618 12.3261 9.57758 12.5189 9.90503 12.748ZM21.523 4.886L15.496 20.392C15.116 21.372 14.019 21.875 13.047 21.516C12.8103 21.4285 12.5941 21.293 12.4122 21.118C12.2303 20.943 12.0866 20.7322 11.99 20.499L10.08 15.9C9.70839 15.0038 8.99626 14.2916 8.10003 13.92L3.50003 12.01C2.54603 11.613 2.11003 10.51 2.52803 9.544C2.63052 9.30796 2.77872 9.09454 2.96408 8.91605C3.14944 8.73755 3.36829 8.59751 3.60803 8.504L19.114 2.475C19.451 2.33922 19.8204 2.30552 20.1763 2.3781C20.5322 2.45069 20.859 2.62634 21.1158 2.8832C21.3727 3.14006 21.5483 3.46679 21.6209 3.82272C21.6935 4.17865 21.6598 4.54807 21.524 4.885L21.523 4.886Z" fill="#EB068F"/>
</svg>
