<svg width="32" height="32" viewBox="0 0 32 32" fill="none" xmlns="http://www.w3.org/2000/svg">
<path d="M29.3333 13.5507C28.8987 13.795 28.5369 14.1507 28.2852 14.5812C28.0335 15.0116 27.901 15.5014 27.9013 16C27.9013 17.052 28.4787 17.968 29.3333 18.4493L28.3773 21.6573C27.8606 21.5684 27.3293 21.6261 26.8436 21.8237C26.358 22.0213 25.9374 22.351 25.6295 22.7755C25.3217 23.1999 25.1389 23.7021 25.1018 24.2251C25.0648 24.7481 25.175 25.2711 25.42 25.7347L22.6707 27.8707C22.3067 27.5723 21.8735 27.3703 21.4109 27.2832C20.9484 27.1962 20.4714 27.2269 20.0238 27.3726C19.5763 27.5183 19.1726 27.7742 18.8499 28.1169C18.5272 28.4595 18.2959 28.8778 18.1773 29.3333L13.7907 29.3227C13.6708 28.8694 13.4392 28.4534 13.117 28.1126C12.7949 27.7719 12.3925 27.5174 11.9466 27.3723C11.5008 27.2272 11.0256 27.1962 10.5647 27.2821C10.1038 27.368 9.67168 27.5681 9.30799 27.864L6.56132 25.7107C6.79942 25.249 6.90473 24.7303 6.86551 24.2123C6.8263 23.6943 6.64411 23.1974 6.33922 22.7769C6.03434 22.3563 5.61872 22.0286 5.13863 21.8302C4.65854 21.6319 4.13282 21.5706 3.61999 21.6533L2.66666 18.4333C3.09326 18.1864 3.44734 17.8315 3.69333 17.4044C3.93931 16.9773 4.06853 16.4929 4.06799 16C4.06799 14.96 3.50666 14.0533 2.66666 13.5667L3.61999 10.3467C4.13292 10.4297 4.65882 10.3686 5.13912 10.1704C5.61942 9.97215 6.03526 9.64447 6.34032 9.22385C6.64539 8.80323 6.8277 8.30618 6.86695 7.78807C6.90621 7.26995 6.80087 6.75111 6.56266 6.28932L9.30666 4.13599C9.67035 4.43193 10.1024 4.63198 10.5634 4.71787C11.0243 4.80376 11.4994 4.77275 11.9453 4.62766C12.3912 4.48257 12.7936 4.22804 13.1157 3.88734C13.4378 3.54663 13.6694 3.13062 13.7893 2.67732L18.1787 2.66666C18.2972 3.12213 18.5285 3.54045 18.8512 3.88309C19.1739 4.22574 19.5776 4.48168 20.0251 4.62737C20.4727 4.77305 20.9497 4.80379 21.4122 4.71676C21.8748 4.62972 22.308 4.42771 22.672 4.12932L25.4187 6.26666C25.1737 6.73024 25.0635 7.25317 25.1005 7.77619C25.1375 8.29921 25.3203 8.8014 25.6282 9.22584C25.936 9.65028 26.3566 9.97999 26.8423 10.1776C27.3279 10.3752 27.8593 10.4329 28.376 10.344L29.3333 13.5493V13.5507ZM22.4307 7.57332C22.4307 7.48932 22.4333 7.40666 22.4373 7.32266L22.3307 7.23999C21.2921 7.52292 20.1932 7.49318 19.1714 7.1545C18.1497 6.81582 17.2506 6.18325 16.5867 5.33599L15.3813 5.33866C14.7199 6.18231 13.825 6.81287 12.808 7.15188C11.7909 7.49089 10.6967 7.52338 9.66132 7.24532L9.53466 7.34666C9.58487 8.55023 9.23691 9.73678 8.54465 10.7226C7.85239 11.7085 6.85445 12.4386 5.70532 12.8C6.37574 13.7317 6.73587 14.8508 6.73466 15.9987C6.73466 17.1747 6.36132 18.2853 5.70532 19.1987C6.85445 19.5601 7.85239 20.2902 8.54465 21.276C9.23691 22.2619 9.58487 23.4484 9.53466 24.652L9.66266 24.752C10.6978 24.4749 11.7916 24.5079 12.8082 24.8469C13.8248 25.1858 14.7195 25.8158 15.3813 26.6587L16.5867 26.6613C17.2501 25.8139 18.149 25.1812 19.1706 24.8425C20.1922 24.5038 21.291 24.4741 22.3293 24.7573L22.436 24.6747C22.3811 23.4674 22.727 22.2758 23.4198 21.2856C24.1127 20.2953 25.1136 19.5621 26.2667 19.2C25.5957 18.268 25.2351 17.1484 25.236 16C25.236 14.824 25.6107 13.712 26.2667 12.8C25.1546 12.4504 24.1831 11.7552 23.4935 10.8154C22.8038 9.87562 22.432 8.74033 22.432 7.57466L22.4307 7.57332ZM16 21.3333C14.5855 21.3333 13.2289 20.7714 12.2288 19.7712C11.2286 18.771 10.6667 17.4145 10.6667 16C10.6667 14.5855 11.2286 13.2289 12.2288 12.2288C13.2289 11.2286 14.5855 10.6667 16 10.6667C17.4145 10.6667 18.771 11.2286 19.7712 12.2288C20.7714 13.2289 21.3333 14.5855 21.3333 16C21.3333 17.4145 20.7714 18.771 19.7712 19.7712C18.771 20.7714 17.4145 21.3333 16 21.3333ZM16 18.6667C16.7072 18.6667 17.3855 18.3857 17.8856 17.8856C18.3857 17.3855 18.6667 16.7072 18.6667 16C18.6667 15.2927 18.3857 14.6145 17.8856 14.1144C17.3855 13.6143 16.7072 13.3333 16 13.3333C15.2927 13.3333 14.6145 13.6143 14.1144 14.1144C13.6143 14.6145 13.3333 15.2927 13.3333 16C13.3333 16.7072 13.6143 17.3855 14.1144 17.8856C14.6145 18.3857 15.2927 18.6667 16 18.6667Z" fill="#EB068F"/>
</svg>
