<svg width="24" height="24" viewBox="0 0 24 24" fill="none" xmlns="http://www.w3.org/2000/svg">
<path d="M6 2H18C19.0609 2 20.0783 2.42143 20.8284 3.17157C21.5786 3.92172 22 4.93913 22 6V18C22 19.0609 21.5786 20.0783 20.8284 20.8284C20.0783 21.5786 19.0609 22 18 22H6C4.93913 22 3.92172 21.5786 3.17157 20.8284C2.42143 20.0783 2 19.0609 2 18V6C2 4.93913 2.42143 3.92172 3.17157 3.17157C3.92172 2.42143 4.93913 2 6 2V2ZM6 4C5.46957 4 4.96086 4.21071 4.58579 4.58579C4.21071 4.96086 4 5.46957 4 6V18C4 18.5304 4.21071 19.0391 4.58579 19.4142C4.96086 19.7893 5.46957 20 6 20H18C18.5304 20 19.0391 19.7893 19.4142 19.4142C19.7893 19.0391 20 18.5304 20 18V6C20 5.46957 19.7893 4.96086 19.4142 4.58579C19.0391 4.21071 18.5304 4 18 4H6ZM10.172 12L13.707 15.536C13.8892 15.7246 13.99 15.9772 13.9877 16.2394C13.9854 16.5016 13.8802 16.7524 13.6948 16.9378C13.5094 17.1232 13.2586 17.2284 12.9964 17.2307C12.7342 17.233 12.4816 17.1322 12.293 16.95L8.05 12.707C7.86253 12.5195 7.75721 12.2652 7.75721 12C7.75721 11.7348 7.86253 11.4805 8.05 11.293L12.293 7.05C12.4816 6.86784 12.7342 6.76705 12.9964 6.76933C13.2586 6.7716 13.5094 6.87677 13.6948 7.06218C13.8802 7.24759 13.9854 7.4984 13.9877 7.7606C13.99 8.0228 13.8892 8.2754 13.707 8.464L10.172 12Z" fill="#EB068F"/>
</svg>
