<svg width="32" height="32" viewBox="0 0 32 32" fill="none" xmlns="http://www.w3.org/2000/svg">
<path d="M8.00001 2.66666H24C25.4145 2.66666 26.771 3.22857 27.7712 4.22876C28.7714 5.22896 29.3333 6.58551 29.3333 8V24C29.3333 25.4145 28.7714 26.771 27.7712 27.7712C26.771 28.7714 25.4145 29.3333 24 29.3333H8.00001C6.58552 29.3333 5.22896 28.7714 4.22877 27.7712C3.22857 26.771 2.66667 25.4145 2.66667 24V8C2.66667 6.58551 3.22857 5.22896 4.22877 4.22876C5.22896 3.22857 6.58552 2.66666 8.00001 2.66666V2.66666ZM8.00001 5.33333C7.29276 5.33333 6.61448 5.61428 6.11439 6.11438C5.61429 6.61448 5.33334 7.29275 5.33334 8V24C5.33334 24.7072 5.61429 25.3855 6.11439 25.8856C6.61448 26.3857 7.29276 26.6667 8.00001 26.6667H24C24.7073 26.6667 25.3855 26.3857 25.8856 25.8856C26.3857 25.3855 26.6667 24.7072 26.6667 24V8C26.6667 7.29275 26.3857 6.61448 25.8856 6.11438C25.3855 5.61428 24.7073 5.33333 24 5.33333H8.00001ZM13.5627 16L18.276 20.7147C18.5189 20.9661 18.6533 21.3029 18.6502 21.6525C18.6472 22.0021 18.507 22.3365 18.2598 22.5838C18.0126 22.831 17.6781 22.9712 17.3285 22.9742C16.9789 22.9773 16.6421 22.8429 16.3907 22.6L10.7333 16.9427C10.4834 16.6926 10.343 16.3535 10.343 16C10.343 15.6464 10.4834 15.3074 10.7333 15.0573L16.3907 9.4C16.6421 9.15712 16.9789 9.02273 17.3285 9.02577C17.6781 9.0288 18.0126 9.16903 18.2598 9.41624C18.507 9.66345 18.6472 9.99787 18.6502 10.3475C18.6533 10.6971 18.5189 11.0339 18.276 11.2853L13.5627 16Z" fill="#EB068F"/>
</svg>
