<svg width="32" height="32" viewBox="0 0 32 32" fill="none" xmlns="http://www.w3.org/2000/svg">
<path d="M8.00001 2.66666H24C25.4145 2.66666 26.771 3.22857 27.7712 4.22876C28.7714 5.22896 29.3333 6.58551 29.3333 8V24C29.3333 25.4145 28.7714 26.771 27.7712 27.7712C26.771 28.7714 25.4145 29.3333 24 29.3333H8.00001C6.58552 29.3333 5.22896 28.7714 4.22877 27.7712C3.22857 26.771 2.66667 25.4145 2.66667 24V8C2.66667 6.58551 3.22857 5.22896 4.22877 4.22876C5.22896 3.22857 6.58552 2.66666 8.00001 2.66666V2.66666ZM8.00001 5.33333C7.29276 5.33333 6.61448 5.61428 6.11439 6.11438C5.61429 6.61448 5.33334 7.29275 5.33334 8V24C5.33334 24.7072 5.61429 25.3855 6.11439 25.8856C6.61448 26.3857 7.29276 26.6667 8.00001 26.6667H24C24.7073 26.6667 25.3855 26.3857 25.8856 25.8856C26.3857 25.3855 26.6667 24.7072 26.6667 24V8C26.6667 7.29275 26.3857 6.61448 25.8856 6.11438C25.3855 5.61428 24.7073 5.33333 24 5.33333H8.00001ZM18.4373 16L13.724 11.2853C13.4811 11.0339 13.3467 10.6971 13.3498 10.3475C13.3528 9.99787 13.493 9.66345 13.7402 9.41624C13.9875 9.16903 14.3219 9.0288 14.6715 9.02577C15.0211 9.02273 15.3579 9.15712 15.6093 9.4L21.2667 15.0573C21.5166 15.3074 21.6571 15.6464 21.6571 16C21.6571 16.3535 21.5166 16.6926 21.2667 16.9427L15.6093 22.6C15.4863 22.7273 15.3392 22.8289 15.1765 22.8988C15.0139 22.9687 14.8389 23.0055 14.6619 23.007C14.4848 23.0085 14.3093 22.9748 14.1454 22.9078C13.9815 22.8407 13.8327 22.7417 13.7075 22.6165C13.5823 22.4913 13.4833 22.3425 13.4162 22.1786C13.3492 22.0147 13.3155 21.8392 13.317 21.6621C13.3185 21.4851 13.3553 21.3101 13.4252 21.1475C13.4951 20.9848 13.5967 20.8377 13.724 20.7147L18.4373 16Z" fill="#EB068F"/>
</svg>
