<svg width="24" height="24" viewBox="0 0 24 24" fill="none" xmlns="http://www.w3.org/2000/svg">
<path d="M6 2H18C19.0609 2 20.0783 2.42143 20.8284 3.17157C21.5786 3.92172 22 4.93913 22 6V18C22 19.0609 21.5786 20.0783 20.8284 20.8284C20.0783 21.5786 19.0609 22 18 22H6C4.93913 22 3.92172 21.5786 3.17157 20.8284C2.42143 20.0783 2 19.0609 2 18V6C2 4.93913 2.42143 3.92172 3.17157 3.17157C3.92172 2.42143 4.93913 2 6 2V2ZM6 4C5.46957 4 4.96086 4.21071 4.58579 4.58579C4.21071 4.96086 4 5.46957 4 6V18C4 18.5304 4.21071 19.0391 4.58579 19.4142C4.96086 19.7893 5.46957 20 6 20H18C18.5304 20 19.0391 19.7893 19.4142 19.4142C19.7893 19.0391 20 18.5304 20 18V6C20 5.46957 19.7893 4.96086 19.4142 4.58579C19.0391 4.21071 18.5304 4 18 4H6ZM13.828 12L10.293 8.464C10.1108 8.2754 10.01 8.0228 10.0123 7.7606C10.0146 7.4984 10.1198 7.24759 10.3052 7.06218C10.4906 6.87677 10.7414 6.7716 11.0036 6.76933C11.2658 6.76705 11.5184 6.86784 11.707 7.05L15.95 11.293C16.1375 11.4805 16.2428 11.7348 16.2428 12C16.2428 12.2652 16.1375 12.5195 15.95 12.707L11.707 16.95C11.6148 17.0455 11.5044 17.1217 11.3824 17.1741C11.2604 17.2265 11.1292 17.2541 10.9964 17.2552C10.8636 17.2564 10.7319 17.2311 10.609 17.1808C10.4861 17.1305 10.3745 17.0563 10.2806 16.9624C10.1867 16.8685 10.1125 16.7569 10.0622 16.634C10.0119 16.5111 9.9866 16.3794 9.98775 16.2466C9.9889 16.1138 10.0165 15.9826 10.0689 15.8606C10.1213 15.7386 10.1975 15.6282 10.293 15.536L13.828 12Z" fill="#EB068F"/>
</svg>
