<svg width="32" height="32" viewBox="0 0 32 32" fill="none" xmlns="http://www.w3.org/2000/svg">
<path d="M12 5.33332V3.99999C12 3.64637 12.1405 3.30723 12.3905 3.05718C12.6406 2.80713 12.9797 2.66666 13.3333 2.66666H18.6667C19.0203 2.66666 19.3594 2.80713 19.6095 3.05718C19.8595 3.30723 20 3.64637 20 3.99999V5.33332H25.3333C26.0406 5.33332 26.7189 5.61427 27.219 6.11437C27.719 6.61447 28 7.29275 28 7.99999V9.33332C28 10.0406 27.719 10.7188 27.219 11.2189C26.7189 11.719 26.0406 12 25.3333 12H25.156L24.2493 25.6C24.1817 26.6124 23.7319 27.5612 22.9909 28.2544C22.25 28.9475 21.2733 29.3332 20.2587 29.3333H11.768C10.7542 29.3333 9.77829 28.9484 9.03748 28.2563C8.29667 27.5643 7.84627 26.6167 7.77733 25.6053L6.84933 12H6.66667C5.95942 12 5.28115 11.719 4.78105 11.2189C4.28095 10.7188 4 10.0406 4 9.33332V7.99999C4 7.29275 4.28095 6.61447 4.78105 6.11437C5.28115 5.61427 5.95942 5.33332 6.66667 5.33332H12ZM25.3333 7.99999H6.66667V9.33332H25.3333V7.99999ZM9.52133 12L10.4373 25.424C10.4603 25.7612 10.6105 26.0771 10.8575 26.3078C11.1046 26.5385 11.43 26.6668 11.768 26.6667H20.2587C20.5971 26.6667 20.9229 26.5381 21.17 26.3068C21.4171 26.0756 21.567 25.759 21.5893 25.4213L22.4827 12H9.52267H9.52133ZM13.3333 13.3333C13.687 13.3333 14.0261 13.4738 14.2761 13.7238C14.5262 13.9739 14.6667 14.313 14.6667 14.6667V24C14.6667 24.3536 14.5262 24.6928 14.2761 24.9428C14.0261 25.1928 13.687 25.3333 13.3333 25.3333C12.9797 25.3333 12.6406 25.1928 12.3905 24.9428C12.1405 24.6928 12 24.3536 12 24V14.6667C12 14.313 12.1405 13.9739 12.3905 13.7238C12.6406 13.4738 12.9797 13.3333 13.3333 13.3333ZM18.6667 13.3333C19.0203 13.3333 19.3594 13.4738 19.6095 13.7238C19.8595 13.9739 20 14.313 20 14.6667V24C20 24.3536 19.8595 24.6928 19.6095 24.9428C19.3594 25.1928 19.0203 25.3333 18.6667 25.3333C18.313 25.3333 17.9739 25.1928 17.7239 24.9428C17.4738 24.6928 17.3333 24.3536 17.3333 24V14.6667C17.3333 14.313 17.4738 13.9739 17.7239 13.7238C17.9739 13.4738 18.313 13.3333 18.6667 13.3333Z" fill="#EB068F"/>
</svg>
