<svg width="24" height="24" viewBox="0 0 24 24" fill="none" xmlns="http://www.w3.org/2000/svg">
<path d="M13 8.414V14.056C13 14.3212 12.8946 14.5756 12.7071 14.7631C12.5196 14.9506 12.2652 15.056 12 15.056C11.7348 15.056 11.4804 14.9506 11.2929 14.7631C11.1054 14.5756 11 14.3212 11 14.056V8.414L9.879 9.536C9.69123 9.72364 9.4366 9.829 9.17115 9.82891C8.90569 9.82882 8.65114 9.72327 8.4635 9.5355C8.27586 9.34773 8.1705 9.0931 8.17059 8.82765C8.17068 8.56219 8.27623 8.30764 8.464 8.12L11.293 5.293C11.4805 5.10553 11.7348 5.00021 12 5.00021C12.2652 5.00021 12.5195 5.10553 12.707 5.293L15.536 8.121C15.6289 8.21398 15.7026 8.32434 15.7529 8.4458C15.8031 8.56725 15.829 8.69741 15.8289 8.82885C15.8289 8.96029 15.8029 9.09044 15.7526 9.21186C15.7022 9.33328 15.6285 9.44359 15.5355 9.5365C15.4425 9.62941 15.3322 9.7031 15.2107 9.75336C15.0893 9.80361 14.9591 9.82946 14.8276 9.82941C14.6962 9.82936 14.5661 9.80343 14.4446 9.75308C14.3232 9.70274 14.2129 9.62898 14.12 9.536L13 8.414ZM6 17H18C18.2652 17 18.5196 17.1054 18.7071 17.2929C18.8946 17.4804 19 17.7348 19 18C19 18.2652 18.8946 18.5196 18.7071 18.7071C18.5196 18.8946 18.2652 19 18 19H6C5.73478 19 5.48043 18.8946 5.29289 18.7071C5.10536 18.5196 5 18.2652 5 18C5 17.7348 5.10536 17.4804 5.29289 17.2929C5.48043 17.1054 5.73478 17 6 17Z" fill="#EB068F"/>
</svg>
