<svg width="32" height="32" viewBox="0 0 32 32" fill="none" xmlns="http://www.w3.org/2000/svg">
<path d="M17.3333 11.2187V18.7413C17.3333 19.095 17.1928 19.4341 16.9428 19.6842C16.6927 19.9342 16.3536 20.0747 16 20.0747C15.6464 20.0747 15.3072 19.9342 15.0572 19.6842C14.8071 19.4341 14.6667 19.095 14.6667 18.7413V11.2187L13.172 12.7147C12.9216 12.9649 12.5821 13.1053 12.2282 13.1052C11.8742 13.1051 11.5348 12.9644 11.2847 12.714C11.0345 12.4636 10.894 12.1241 10.8941 11.7702C10.8942 11.4163 11.035 11.0769 11.2853 10.8267L15.0573 7.05734C15.3074 6.80738 15.6464 6.66696 16 6.66696C16.3535 6.66696 16.6926 6.80738 16.9427 7.05734L20.7147 10.828C20.8385 10.952 20.9368 11.0991 21.0038 11.2611C21.0708 11.423 21.1053 11.5966 21.1052 11.7718C21.1051 11.9471 21.0706 12.1206 21.0034 12.2825C20.9363 12.4444 20.838 12.5915 20.714 12.7153C20.59 12.8392 20.4429 12.9375 20.2809 13.0045C20.119 13.0715 19.9454 13.106 19.7702 13.1059C19.5949 13.1058 19.4214 13.0712 19.2595 13.0041C19.0976 12.937 18.9505 12.8386 18.8267 12.7147L17.3333 11.2187ZM7.99999 22.6667H24C24.3536 22.6667 24.6928 22.8072 24.9428 23.0572C25.1928 23.3073 25.3333 23.6464 25.3333 24C25.3333 24.3536 25.1928 24.6928 24.9428 24.9428C24.6928 25.1929 24.3536 25.3333 24 25.3333H7.99999C7.64637 25.3333 7.30723 25.1929 7.05718 24.9428C6.80713 24.6928 6.66666 24.3536 6.66666 24C6.66666 23.6464 6.80713 23.3073 7.05718 23.0572C7.30723 22.8072 7.64637 22.6667 7.99999 22.6667Z" fill="#EB068F"/>
</svg>
