<svg width="32" height="32" viewBox="0 0 32 32" fill="none" xmlns="http://www.w3.org/2000/svg">
<path d="M11.3787 16.0933C11.5426 16.0234 11.7189 15.987 11.8971 15.9864C12.0753 15.9857 12.2519 16.0208 12.4163 16.0896C12.5807 16.1583 12.7297 16.2594 12.8544 16.3867C12.9791 16.514 13.0771 16.665 13.1424 16.8308C13.2078 16.9967 13.2392 17.1739 13.2349 17.3521C13.2305 17.5302 13.1905 17.7057 13.1172 17.8682C13.0439 18.0306 12.9388 18.1767 12.808 18.2979C12.6773 18.419 12.5236 18.5126 12.356 18.5733C11.4647 18.9245 10.6998 19.5358 10.1607 20.3277C9.62158 21.1196 9.3333 22.0554 9.33334 23.0133V25.3333C9.33334 25.687 9.47381 26.0261 9.72386 26.2761C9.97391 26.5262 10.313 26.6667 10.6667 26.6667H21.3333C21.687 26.6667 22.0261 26.5262 22.2761 26.2761C22.5262 26.0261 22.6667 25.687 22.6667 25.3333V23.1373C22.6668 22.1486 22.3665 21.1832 21.8055 20.3691C21.2445 19.555 20.4493 18.9306 19.5253 18.5787C19.3567 18.5202 19.2016 18.4284 19.0691 18.3088C18.9366 18.1892 18.8295 18.0443 18.754 17.8825C18.6786 17.7207 18.6364 17.5455 18.63 17.3671C18.6236 17.1888 18.653 17.0109 18.7166 16.8441C18.7801 16.6774 18.8765 16.5251 19.0001 16.3962C19.1236 16.2674 19.2717 16.1647 19.4357 16.0942C19.5996 16.0237 19.7761 15.9868 19.9545 15.9857C20.133 15.9847 20.3099 16.0194 20.4747 16.088C21.9035 16.6322 23.1332 17.5978 24.0009 18.8567C24.8685 20.1156 25.3332 21.6084 25.3333 23.1373V25.3333C25.3333 26.3942 24.9119 27.4116 24.1618 28.1618C23.4116 28.9119 22.3942 29.3333 21.3333 29.3333H10.6667C9.60581 29.3333 8.58839 28.9119 7.83824 28.1618C7.0881 27.4116 6.66667 26.3942 6.66667 25.3333V23.0133C6.66686 21.5202 7.11637 20.0617 7.95675 18.8275C8.79713 17.5934 9.98947 16.6406 11.3787 16.0933ZM16 2.66667C17.4145 2.66667 18.771 3.22857 19.7712 4.22877C20.7714 5.22896 21.3333 6.58552 21.3333 8.00001V10.6667C21.3333 12.0812 20.7714 13.4377 19.7712 14.4379C18.771 15.4381 17.4145 16 16 16C14.5855 16 13.229 15.4381 12.2288 14.4379C11.2286 13.4377 10.6667 12.0812 10.6667 10.6667V8.00001C10.6667 6.58552 11.2286 5.22896 12.2288 4.22877C13.229 3.22857 14.5855 2.66667 16 2.66667V2.66667ZM16 5.33334C15.2928 5.33334 14.6145 5.61429 14.1144 6.11439C13.6143 6.61448 13.3333 7.29276 13.3333 8.00001V10.6667C13.3333 11.3739 13.6143 12.0522 14.1144 12.5523C14.6145 13.0524 15.2928 13.3333 16 13.3333C16.7072 13.3333 17.3855 13.0524 17.8856 12.5523C18.3857 12.0522 18.6667 11.3739 18.6667 10.6667V8.00001C18.6667 7.29276 18.3857 6.61448 17.8856 6.11439C17.3855 5.61429 16.7072 5.33334 16 5.33334Z" fill="#EB068F"/>
</svg>
