<svg width="32" height="32" viewBox="0 0 32 32" fill="none" xmlns="http://www.w3.org/2000/svg">
<path d="M7.37867 16.76C7.5426 16.6901 7.71889 16.6537 7.89711 16.653C8.07533 16.6524 8.25188 16.6875 8.41631 16.7562C8.58074 16.825 8.72971 16.926 8.85443 17.0533C8.97915 17.1807 9.07707 17.3317 9.14242 17.4975C9.20776 17.6633 9.2392 17.8406 9.23487 18.0187C9.23055 18.1969 9.19055 18.3724 9.11723 18.5348C9.04392 18.6973 8.93878 18.8434 8.80803 18.9645C8.67728 19.0856 8.52358 19.1793 8.35601 19.24C7.46473 19.5912 6.69977 20.2025 6.16068 20.9944C5.62158 21.7862 5.3333 22.722 5.33334 23.68V26C5.33334 26.3536 5.47381 26.6928 5.72386 26.9428C5.97391 27.1929 6.31305 27.3333 6.66667 27.3333H17.3333C17.687 27.3333 18.0261 27.1929 18.2761 26.9428C18.5262 26.6928 18.6667 26.3536 18.6667 26V23.804C18.6668 22.8153 18.3665 21.8499 17.8055 21.0358C17.2445 20.2216 16.4493 19.5972 15.5253 19.2453C15.3567 19.1868 15.2016 19.0951 15.0691 18.9755C14.9366 18.8559 14.8295 18.7109 14.754 18.5492C14.6786 18.3874 14.6364 18.2121 14.63 18.0338C14.6236 17.8554 14.653 17.6776 14.7166 17.5108C14.7801 17.344 14.8765 17.1917 15.0001 17.0629C15.1236 16.9341 15.2717 16.8314 15.4357 16.7608C15.5996 16.6903 15.7761 16.6534 15.9545 16.6524C16.133 16.6513 16.3099 16.6861 16.4747 16.7547C17.9035 17.2989 19.1332 18.2644 20.0009 19.5233C20.8685 20.7822 21.3332 22.2751 21.3333 23.804V26C21.3333 27.0609 20.9119 28.0783 20.1618 28.8284C19.4116 29.5786 18.3942 30 17.3333 30H6.66667C5.60581 30 4.58839 29.5786 3.83824 28.8284C3.0881 28.0783 2.66667 27.0609 2.66667 26L2.66667 23.68C2.66686 22.1869 3.11637 20.7284 3.95675 19.4942C4.79713 18.26 5.98947 17.3073 7.37867 16.76ZM12 3.33333C13.4145 3.33333 14.771 3.89524 15.7712 4.89543C16.7714 5.89562 17.3333 7.25218 17.3333 8.66667V11.3333C17.3333 12.7478 16.7714 14.1044 15.7712 15.1046C14.771 16.1048 13.4145 16.6667 12 16.6667C10.5855 16.6667 9.22896 16.1048 8.22877 15.1046C7.22857 14.1044 6.66667 12.7478 6.66667 11.3333V8.66667C6.66667 7.25218 7.22857 5.89562 8.22877 4.89543C9.22896 3.89524 10.5855 3.33333 12 3.33333ZM12 6C11.2928 6 10.6145 6.28095 10.1144 6.78105C9.61429 7.28115 9.33334 7.95942 9.33334 8.66667V11.3333C9.33334 12.0406 9.61429 12.7189 10.1144 13.219C10.6145 13.719 11.2928 14 12 14C12.7072 14 13.3855 13.719 13.8856 13.219C14.3857 12.7189 14.6667 12.0406 14.6667 11.3333V8.66667C14.6667 7.95942 14.3857 7.28115 13.8856 6.78105C13.3855 6.28095 12.7072 6 12 6ZM24 28.6667C23.6464 28.6667 23.3072 28.5262 23.0572 28.2761C22.8071 28.0261 22.6667 27.687 22.6667 27.3333C22.6667 26.9797 22.8071 26.6406 23.0572 26.3905C23.3072 26.1405 23.6464 26 24 26H25.3333C25.687 26 26.0261 25.8595 26.2761 25.6095C26.5262 25.3594 26.6667 25.0203 26.6667 24.6667V22.216C26.6666 21.2682 26.3684 20.3444 25.8141 19.5756C25.2599 18.8067 24.4778 18.2317 23.5787 17.932C23.4125 17.8767 23.2589 17.7892 23.1265 17.6744C22.9942 17.5597 22.8857 17.4201 22.8074 17.2635C22.729 17.1068 22.6822 16.9363 22.6698 16.7616C22.6573 16.5869 22.6793 16.4115 22.7347 16.2453C22.79 16.0792 22.8775 15.9255 22.9922 15.7932C23.1069 15.6608 23.2466 15.5524 23.4032 15.474C23.5598 15.3956 23.7304 15.3489 23.905 15.3364C24.0797 15.3239 24.2552 15.346 24.4213 15.4013C25.8517 15.878 27.0958 16.7926 27.9774 18.0157C28.859 19.2388 29.3334 20.7083 29.3333 22.216V24.6667C29.3333 25.7275 28.9119 26.7449 28.1618 27.4951C27.4116 28.2452 26.3942 28.6667 25.3333 28.6667H24ZM20 4.66667C19.6464 4.66667 19.3072 4.52619 19.0572 4.27614C18.8071 4.02609 18.6667 3.68696 18.6667 3.33333C18.6667 2.97971 18.8071 2.64057 19.0572 2.39052C19.3072 2.14048 19.6464 2 20 2C21.4145 2 22.771 2.5619 23.7712 3.5621C24.7714 4.56229 25.3333 5.91885 25.3333 7.33333V10C25.3333 11.4145 24.7714 12.771 23.7712 13.7712C22.771 14.7714 21.4145 15.3333 20 15.3333C19.6464 15.3333 19.3072 15.1929 19.0572 14.9428C18.8071 14.6928 18.6667 14.3536 18.6667 14C18.6667 13.6464 18.8071 13.3072 19.0572 13.0572C19.3072 12.8071 19.6464 12.6667 20 12.6667C20.7072 12.6667 21.3855 12.3857 21.8856 11.8856C22.3857 11.3855 22.6667 10.7072 22.6667 10V7.33333C22.6667 6.62609 22.3857 5.94781 21.8856 5.44772C21.3855 4.94762 20.7072 4.66667 20 4.66667Z" fill="#EB068F"/>
</svg>
