<svg width="33" height="39" viewBox="0 0 33 39" fill="none" xmlns="http://www.w3.org/2000/svg">
<ellipse cx="16" cy="17.7073" rx="12" ry="11.7073" fill="#DD0A0A"/>
<ellipse cx="16" cy="17.7073" rx="11.25" ry="10.9756" fill="#FFC0DE"/>
<g filter="url(#filter0_d)">
<path d="M10.6 16.1707V16.9707C10.6 17.2631 10.536 17.552 10.4125 17.8171V17.8171C10.289 18.0822 10.225 18.3711 10.225 18.6635V19.0682C10.225 19.2316 10.2653 19.3925 10.3424 19.5366V19.5366M16.675 21.7317L14.6337 22.3541C14.3959 22.4266 14.1486 22.4634 13.9 22.4634V22.4634M16.675 21.7317L16.6841 21.7193C17.1758 21.0476 17.5763 20.3136 17.875 19.5366V19.5366V19.5366C18.1244 18.6608 18.2843 17.762 18.3524 16.8539L18.475 15.2195L18.5043 14.6342M16.675 21.7317L15.85 23.1951L15.589 23.6619C15.1647 24.421 14.6477 25.1244 14.05 25.7561V25.7561L13.0886 26.5498C13.0796 26.5572 13.0697 26.5636 13.0592 26.5687L12.7594 26.7149C12.6346 26.7758 12.7045 26.9647 12.8389 26.9297V26.9297C12.8463 26.9278 12.8535 26.9251 12.8603 26.9218L13.2523 26.7306C13.6813 26.5213 14.0741 26.2448 14.4158 25.9114L15.325 25.0244L17.275 23.1951L18.0076 22.2818C18.4182 21.7701 18.7758 21.218 19.075 20.6342V20.6342M18.625 12.2195L17.7742 12.7854C17.2429 13.1389 16.7498 13.5468 16.303 14.0025L15.3617 14.9626C15.3374 14.9874 15.3169 15.0157 15.3011 15.0466L14.9837 15.6659C14.8992 15.8309 14.65 15.7708 14.65 15.5854V15.5854V15.5854C14.65 15.3439 14.6981 15.1048 14.7915 14.8821L15.325 13.6098M18.625 12.2195L19 12M18.625 12.2195L18.5043 14.6342M15.325 13.6098L15.602 13.3125C15.9157 12.9758 16.2757 12.6853 16.671 12.4496L17.0824 12.2043C17.309 12.0692 17.5579 11.9757 17.8174 11.9282L18.1976 11.8587C18.4733 11.8082 18.7581 11.8584 19 12V12M15.325 13.6098L14.8244 14.2028C14.4593 14.6353 14.1447 15.108 13.8865 15.6117L13.6152 16.1411C13.6051 16.1608 13.5966 16.1814 13.59 16.2025L13.4419 16.6721C13.3898 16.8372 13.1638 16.8563 13.0849 16.7022V16.7022C13.0783 16.6894 13.0732 16.6759 13.0696 16.662L12.85 15.8049L12.8261 15.6764C12.7439 15.2354 12.794 14.7798 12.9702 14.3672V14.3672C13.0398 14.2043 13.1283 14.05 13.2337 13.9076L14.05 12.8049L14.95 11.7805M19 12L19.4324 11.8192C19.4936 11.7936 19.5494 11.7567 19.5968 11.7104V11.7104C19.695 11.6146 19.8268 11.561 19.964 11.561H20.05M19 12V12C19.3471 12.3387 19.63 12.7375 19.8348 13.1771L19.8642 13.2401C20.1348 13.821 20.275 14.454 20.275 15.0948V15.3659L20.05 18.2195M20.05 11.561L20.425 11.0488M20.05 11.561V11.561C20.05 11.4662 20.0178 11.3743 19.9588 11.3002L19.7496 11.0378C19.6023 10.8531 19.4101 10.7094 19.1912 10.6204L19.0099 10.5467C18.7557 10.4434 18.4839 10.3903 18.2095 10.3903H17.9111C17.5885 10.3903 17.2636 10.434 16.9522 10.5184V10.5184C16.3802 10.6734 15.8464 10.9642 15.4082 11.3632L14.95 11.7805M20.05 11.561V11.561C20.5881 11.9905 20.988 12.5688 21.2001 13.2238L21.325 13.6098M20.425 11.0488L20.875 10.7561M20.425 11.0488V11.0488C21.007 11.38 21.4563 11.9025 21.6965 12.5276L22 13.3171V13.3171C22.1493 13.8512 22.225 14.4031 22.225 14.9577V15M20.875 10.7561H21.1399C21.3596 10.7561 21.5758 10.8123 21.7677 10.9193V10.9193C21.921 11.0047 22.0552 11.1205 22.1621 11.2596L22.6021 11.832C22.8002 12.0897 22.9715 12.3668 23.1135 12.6592L23.2457 12.9316C23.4645 13.3821 23.6284 13.8572 23.734 14.3467V14.3467C23.8277 14.781 23.875 15.2241 23.875 15.6684V16.6829V17.6548C23.875 18.4205 24.2632 19.5668 23.575 19.9024V19.9024C23.4686 19.9544 22.686 20.8923 22.1789 21.5122M20.875 10.7561V10.7561C20.875 10.5249 20.7698 10.3063 20.5891 10.162L20.1784 9.83421C20.093 9.76602 20.0017 9.70552 19.9056 9.65343L19.7654 9.57745C19.5061 9.43691 19.2307 9.32832 18.9453 9.25407L18.8266 9.2232C18.4438 9.12359 18.0498 9.07318 17.6542 9.07318H16.825H15.175M21.475 22.0244L21.7527 21.8696C21.9161 21.7785 22.0604 21.657 22.1789 21.5122V21.5122M21.475 22.0244L20.875 24M21.475 22.0244L22 22.6098M21.475 22.0244H21.025M20.575 22.0244L20.425 22.0776M20.575 22.0244H20.8M20.575 22.0244V22.0244C20.3789 21.9234 20.2146 21.7699 20.1006 21.581L19.75 21M18.475 23.7073L18.2873 23.28C18.2625 23.2235 18.2423 23.1651 18.227 23.1054L18.0721 22.5011C18.044 22.3911 18.0891 22.2754 18.1842 22.2135V22.2135C18.2271 22.1856 18.2773 22.1707 18.3285 22.1707H18.625L19.0398 22.2247C19.5066 22.2854 19.9813 22.235 20.425 22.0776V22.0776M18.475 23.7073V23.7073C18.8223 24.0945 19.0986 24.54 19.2912 25.0231L19.525 25.6098V25.6098C19.6745 25.9986 19.7768 26.404 19.8297 26.8172L19.9 27.3659V27.3659C19.9 28.1249 19.3491 28.7717 18.5997 28.8924L13.3 29.7463M18.475 23.7073V23.7073C18.1789 23.5629 17.8538 23.4878 17.5243 23.4878H17.425V23.4878C17.1352 23.4878 16.8556 23.5946 16.6396 23.7878L16.2419 24.1434C16.1308 24.2428 16.0286 24.3515 15.9364 24.4685L15.7927 24.6507C15.4825 25.0441 15.2303 25.48 15.0438 25.9451L14.65 26.9268L13.9 28.6829L13.3 29.7463M13.9 22.4634H13.8315C12.8344 22.4634 11.8938 22.0001 11.2861 21.2096V21.2096C11.1789 21.0701 11.0833 20.922 11.0003 20.7669L10.3424 19.5366M13.9 22.4634L14.275 23.4878L14.4677 24.1771C14.4891 24.2538 14.5 24.3331 14.5 24.4127V24.4127C14.5 24.7801 14.2706 25.1083 13.9255 25.2346L13.9 25.2439L13.075 25.6098L12.025 26.1951L10.9441 26.8981C10.9148 26.9172 10.8838 26.9338 10.8517 26.9478V26.9478C10.5146 27.0939 10.3749 27.4973 10.5493 27.8207L11.1328 28.9022C11.4874 29.5595 12.2191 29.9204 12.9564 29.8016L13.3 29.7463M20.05 18.2195L19.844 18.8225C19.6316 19.4441 19.3746 20.0496 19.075 20.6342V20.6342M20.05 18.2195L20.2441 18.1059C20.3539 18.0416 20.4915 18.0486 20.5942 18.1238V18.1238C20.6764 18.184 20.725 18.2797 20.725 18.3816V18.7683M19.075 20.6342H19.0893C19.3686 20.6342 19.6369 20.525 19.8369 20.3299V20.3299C19.8789 20.2889 19.9242 20.2514 19.9724 20.2179L20.1508 20.0935C20.3308 19.9681 20.4773 19.8003 20.5774 19.605V19.605C20.6744 19.4158 20.725 19.2062 20.725 18.9935V18.7683M14.95 11.7805L14.05 12.5122L13.075 13.3171L12.025 14.3415L10.9 15.5854M10.9 15.5854V15.5854C10.8004 15.1967 10.75 14.797 10.75 14.3957V14.122M10.9 15.5854L10.9721 15.1868C11.0731 14.6282 11.2776 14.0933 11.575 13.6098V13.6098V13.6098C12.0239 12.8798 12.5426 12.195 13.1237 11.5651L13.6 11.0488L14.5 10.2439M10.75 14.122L11.146 13.3493C11.5285 12.603 12.0502 11.9368 12.6832 11.3867V11.3867C13.0928 11.0306 13.545 10.7267 14.0293 10.4818L14.5 10.2439M10.75 14.122V14.122C10.5123 14.2611 10.3482 14.4983 10.3018 14.7698L10.2273 15.2059C10.2258 15.215 10.225 15.2241 10.225 15.2333V15.5685C10.225 15.6976 10.0429 15.725 10.005 15.6015V15.6015C10.0017 15.5908 10 15.5797 10 15.5685V14.9575C10 14.549 10.0599 14.1427 10.1778 13.7516L10.204 13.6649C10.3176 13.2881 10.4771 12.9267 10.6791 12.589L10.9 12.2195L11.575 11.2683L11.6947 11.1409C12.1625 10.6431 12.6994 10.215 13.2889 9.86991V9.86991C13.6953 9.63202 14.1243 9.43499 14.5695 9.28168L15.175 9.07318M14.5 10.2439L16.2909 9.73432C16.2969 9.73259 16.3032 9.73172 16.3095 9.73172V9.73172C16.3915 9.73172 16.4036 9.84996 16.3233 9.86658L14.5 10.2439ZM15.175 9.07318L14.9127 9.12193C14.0416 9.28381 13.1963 9.56277 12.4 9.95123V9.95123V9.95123C11.8536 10.242 11.3575 10.6188 10.9307 11.0672L10.6 11.4146L9.85887 12.2733C9.55431 12.6261 9.29809 13.0179 9.09697 13.4384V13.4384C8.94934 13.747 8.83223 14.0693 8.74731 14.4007L8.58327 15.0409C8.52798 15.2567 8.5 15.4786 8.5 15.7013V16.1056C8.5 16.4782 8.63297 16.8386 8.875 17.122V17.122M8.875 17.122L8.76651 16.0106C8.73895 15.7283 8.74736 15.4436 8.79155 15.1634V15.1634C8.84683 14.8128 8.95748 14.4732 9.11935 14.1574L9.17046 14.0577C9.3229 13.7602 9.51158 13.4828 9.73218 13.2317L9.85 13.0976M8.875 17.122L8.93535 17.6813C8.99501 18.2343 9.10026 18.7814 9.25 19.3171V19.3171L9.42613 20.3481C9.55847 21.1228 9.625 21.9073 9.625 22.6932V22.6932C9.625 23.3684 9.67411 24.0427 9.77194 24.7108L9.85 25.2439L9.96803 25.9924C9.98904 26.1256 10.0416 26.2519 10.1213 26.3607L10.3388 26.6578C10.3615 26.6889 10.3978 26.7073 10.4363 26.7073V26.7073C10.5177 26.7073 10.5758 26.6286 10.5519 26.5509L10.3975 26.0487C10.3826 26.0003 10.375 25.9498 10.375 25.8991V24.8049L10.225 22.8293V21L10.3424 19.5366M20.425 22.0776V22.0776C20.1943 22.6752 20.3124 23.3513 20.7321 23.8353L20.875 24M20.425 22.0776L20.875 24M20.875 24L22 22.6098M20.875 24L20.725 24.8049L20.575 25.9756V26.7804C20.575 27.406 20.9356 27.9755 21.5011 28.2429L21.6943 28.3343C22.4301 28.6824 23.3072 28.3399 23.6125 27.5854V27.5854M20.875 24L21.475 23.9133M22.9 23.7073V23.7073C23.1815 23.1581 23.1728 22.5051 22.8767 21.9635L22.75 21.7317M22.9 23.7073L22.75 23.729L22 23.8374M22.9 23.7073L22.75 21.7317M22.9 23.7073L22 22.6098M22.9 23.7073L23.35 24.439L23.7245 25.0132C23.8244 25.1663 23.9029 25.3323 23.9578 25.5066V25.5066C24.0982 25.9517 24.0793 26.4318 23.9042 26.8644L23.6125 27.5854M22.75 21.7317L22.1789 21.5122M22.75 21.7317L22.6928 21.7875C22.479 21.9961 22.1237 21.8058 22.1789 21.5122V21.5122M21.025 22.0244L21.1614 21.8691C21.37 21.6317 21.5566 21.3757 21.7188 21.1044L21.734 21.079C21.9109 20.7832 22.0562 20.4698 22.1676 20.1437V20.1437C22.3053 19.7407 22.3901 19.3215 22.42 18.8966L22.4831 18V18C22.4715 17.7815 22.153 17.7705 22.1265 17.9878L22.0032 18.9985C22.0011 19.0157 21.9973 19.0327 21.9919 19.0492L21.475 20.6342L20.875 21.8699M21.025 22.0244H20.8M20.8 22.0244L20.875 21.8699M20.725 18.7683V18.7683C21.0344 18.7872 21.2482 19.0857 21.1665 19.3847L21.025 19.9024L20.875 21V21.8699M21.475 23.9133L21.3394 25.447C21.3298 25.5553 21.3293 25.6643 21.3378 25.7727V25.7727C21.416 26.7636 22.2255 27.5379 23.2189 27.5719L23.6125 27.5854M21.475 23.9133L22 23.8374M23.05 26.1951L22.8795 25.6545C22.7936 25.3823 22.6682 25.1241 22.5071 24.8884L22.1743 24.4014C22.0608 24.2353 22 24.0387 22 23.8374V23.8374M22 23.8374L22.0307 23.862C22.5058 24.2431 22.9028 24.7123 23.2 25.2439V25.2439L23.575 25.9756M13.3 21.2195L13.361 21.1897C13.5177 21.1134 13.6517 20.9975 13.75 20.8537V20.8537M12.625 20.561L12.4829 20.2145C12.4777 20.2016 12.4736 20.1883 12.4708 20.1746L12.4581 20.1125C12.4311 19.9808 12.5503 19.8659 12.6808 19.8978V19.8978C12.6936 19.9009 12.7059 19.9053 12.7177 19.9111L12.8982 19.9991C13.1629 20.1283 13.3967 20.3131 13.5835 20.5409L13.6 20.561M12.4 18.1464L12.55 18.439M12.7 17.7073L12.85 17.4146M16.375 18.3659H17.05M17.5 18.1464L17.8287 17.8257C17.8595 17.7956 17.8872 17.7626 17.9115 17.727L17.9494 17.6717C17.9986 17.5996 18.025 17.5143 18.025 17.4269V17.4269C18.025 17.3705 18.014 17.3146 17.9926 17.2624L17.875 16.9756M17.875 16.9756L17.6811 16.7108C17.5609 16.5465 17.4201 16.3984 17.2622 16.2701L17.1147 16.1502C17.0717 16.1152 17.0248 16.0853 16.975 16.061V16.061M17.875 16.9756V17.1489C17.875 17.2274 17.8563 17.3047 17.8206 17.3745V17.3745C17.8069 17.4012 17.7908 17.4266 17.7725 17.4504L17.6819 17.5683C17.611 17.6605 17.5274 17.7422 17.4335 17.8109L17.3709 17.8567C17.3074 17.9032 17.2369 17.9392 17.162 17.9636V17.9636C17.0878 17.9877 17.0103 18 16.9322 18H16.6001C16.5503 18 16.5009 17.9922 16.4536 17.9768V17.9768C16.354 17.9444 16.268 17.88 16.2089 17.7935L16.1976 17.777C16.1661 17.7309 16.142 17.68 16.1263 17.6263L16.1201 17.6051C16.0904 17.5039 16.0851 17.3972 16.1044 17.2935L16.15 17.0488L16.1842 16.9154C16.2113 16.8095 16.2502 16.707 16.3 16.6098V16.6098L16.3642 16.4846C16.4204 16.3748 16.5044 16.2817 16.6078 16.2145V16.2145C16.6525 16.1854 16.7003 16.1615 16.7503 16.1432L16.975 16.061M14.95 16.3171L15.3764 16.0675C15.5883 15.9434 15.8294 15.8781 16.075 15.8781V15.8781H16.2884C16.4452 15.8781 16.6009 15.9028 16.75 15.9512V15.9512L16.975 16.061M11.575 17.8537L11.4162 17.7917C11.2748 17.7365 11.1511 17.6437 11.0586 17.5233V17.5233C11.0032 17.4514 10.96 17.3708 10.9307 17.2849L10.9 17.1951M12.4 16.2439L12.175 15.8781L12.1149 15.7608C12.0566 15.6469 11.9628 15.555 11.8478 15.4989V15.4989C11.767 15.4595 11.6783 15.439 11.5884 15.439H11.5193C11.4567 15.439 11.3942 15.4465 11.3334 15.4614V15.4614C11.197 15.4947 11.072 15.5639 10.9715 15.662L10.75 15.8781M16.525 14.6342V14.6342C17.1122 14.4432 17.7424 14.4276 18.3384 14.5892L18.5043 14.6342M17.05 16.9756V16.9756C17.096 16.9756 17.1382 17.0014 17.1592 17.0424L17.1814 17.0857C17.1936 17.1095 17.2 17.1359 17.2 17.1627V17.1627C17.2 17.2273 17.1632 17.2863 17.1051 17.3146L17.0905 17.3217C17.0638 17.3347 17.0346 17.3415 17.005 17.3415H16.9515C16.9185 17.3415 16.8868 17.3286 16.8632 17.3055V17.3055C16.8388 17.2817 16.825 17.2491 16.825 17.215V17.1685C16.825 17.1379 16.8323 17.1078 16.8462 17.0805V17.0805C16.8792 17.0161 16.9455 16.9756 17.0179 16.9756H17.05ZM12.175 16.0244V16.0244C12.2248 16.1215 12.2611 16.2249 12.283 16.3318L12.2971 16.4007C12.3157 16.4911 12.325 16.5831 12.325 16.6753V16.7408C12.325 16.8478 12.3073 16.9542 12.2727 17.0555V17.0555C12.2576 17.0997 12.2393 17.1428 12.218 17.1845L12.1392 17.3382C12.1135 17.3883 12.0752 17.4308 12.028 17.4615L11.9631 17.5037C11.9084 17.5392 11.8392 17.5435 11.7806 17.5149V17.5149C11.7445 17.4973 11.7151 17.4685 11.6968 17.4328L11.638 17.3181C11.5966 17.2373 11.575 17.1478 11.575 17.057V16.9244C11.575 16.8611 11.5804 16.7979 11.591 16.7355L11.6402 16.4478C11.6467 16.4095 11.6563 16.3718 11.6689 16.335L11.677 16.3111C11.7086 16.2188 11.7614 16.1353 11.8312 16.0672L11.8593 16.0397C11.8697 16.0295 11.8811 16.0204 11.8934 16.0125L11.9622 15.9677C12.0359 15.9198 12.1349 15.9461 12.175 16.0244V16.0244ZM11.875 16.6829V16.5899C11.875 16.5558 11.8888 16.5232 11.9132 16.4994L11.9189 16.4937C11.9389 16.4743 11.9656 16.4634 11.9934 16.4634H12.0268C12.0672 16.4634 12.1 16.4962 12.1 16.5366V16.5366V16.6829V16.7028C12.1 16.7369 12.0862 16.7695 12.0618 16.7933L12.0518 16.8031C12.0346 16.8199 12.0115 16.8293 11.9875 16.8293V16.8293C11.9635 16.8293 11.9404 16.8199 11.9232 16.8031L11.9132 16.7933C11.8888 16.7695 11.875 16.7369 11.875 16.7028V16.6829Z" stroke="#FFF8FB"/>
</g>
<defs>
<filter id="filter0_d" x="0" y="0.573181" width="32.5509" height="37.7509" filterUnits="userSpaceOnUse" color-interpolation-filters="sRGB">
<feFlood flood-opacity="0" result="BackgroundImageFix"/>
<feColorMatrix in="SourceAlpha" type="matrix" values="0 0 0 0 0 0 0 0 0 0 0 0 0 0 0 0 0 0 127 0"/>
<feOffset/>
<feGaussianBlur stdDeviation="4"/>
<feColorMatrix type="matrix" values="0 0 0 0 0.970833 0 0 0 0 0.0647222 0 0 0 0 0.0647222 0 0 0 1 0"/>
<feBlend mode="normal" in2="BackgroundImageFix" result="effect1_dropShadow"/>
<feBlend mode="normal" in="SourceGraphic" in2="effect1_dropShadow" result="shape"/>
</filter>
</defs>
</svg>
