<svg width="49" height="60" viewBox="0 0 49 60" fill="none" xmlns="http://www.w3.org/2000/svg">
<ellipse cx="24" cy="26.4146" rx="24" ry="23.4146" fill="#DD0A0A"/>
<ellipse cx="24" cy="26.4147" rx="22.5" ry="21.9512" fill="#FFC0DE"/>
<g filter="url(#filter0_d)">
<path d="M13.2 23.3415V24.9413C13.2 25.5262 13.072 26.104 12.825 26.6342V26.6342C12.578 27.1643 12.45 27.7421 12.45 28.327V29.1363C12.45 29.4632 12.5306 29.785 12.6848 30.0732V30.0732M25.35 34.4634L21.2674 35.7081C20.7918 35.8531 20.2973 35.9268 19.8 35.9268V35.9268M25.35 34.4634L25.3681 34.4387C26.3517 33.0953 27.1526 31.6273 27.75 30.0732V30.0732V30.0732C28.2487 28.3216 28.5686 26.524 28.7048 24.7079L28.95 21.439L29.0085 20.2683M25.35 34.4634L23.7 37.3903L23.1781 38.3238C22.3293 39.8419 21.2954 41.2488 20.1 42.5122V42.5122L18.1772 44.0995C18.1591 44.1144 18.1394 44.1272 18.1183 44.1374L17.5189 44.4298C17.2692 44.5516 17.4089 44.9294 17.6777 44.8595V44.8595C17.6925 44.8556 17.7069 44.8503 17.7207 44.8436L18.5046 44.4612C19.3627 44.0426 20.1483 43.4895 20.8316 42.8228L22.65 41.0488L26.55 37.3903L28.0153 35.5637C28.8363 34.5401 29.5515 33.436 30.15 32.2683V32.2683M29.25 15.439L27.5485 16.5709C26.4857 17.2778 25.4996 18.0936 24.606 19.005L22.7234 20.9252C22.6747 20.9748 22.6339 21.0315 22.6022 21.0933L21.9675 22.3318C21.7983 22.6618 21.3 22.5415 21.3 22.1708V22.1708V22.1708C21.3 21.6878 21.3962 21.2097 21.583 20.7643L22.65 18.2195M29.25 15.439L30 15M29.25 15.439L29.0085 20.2683M22.65 18.2195L23.204 17.625C23.8315 16.9516 24.5513 16.3705 25.3419 15.8991L26.1647 15.4086C26.6179 15.1384 27.1158 14.9514 27.6348 14.8565L28.3951 14.7174C28.9467 14.6165 29.5161 14.7168 30 15V15M22.65 18.2195L21.6489 19.4055C20.9187 20.2706 20.2893 21.216 19.773 22.2234L19.2304 23.2821C19.2102 23.3216 19.1933 23.3628 19.1799 23.4051L18.8837 24.3443C18.7796 24.6744 18.3277 24.7125 18.1698 24.4044V24.4044C18.1566 24.3788 18.1464 24.3518 18.1392 24.3239L17.7 22.6098L17.6521 22.3528C17.4877 21.4707 17.5881 20.5597 17.9405 19.7345V19.7345C18.0797 19.4086 18.2565 19.1 18.4674 18.8152L20.1 16.6098L21.9 14.561M30 15L30.8649 14.6384C30.9872 14.5873 31.0987 14.5135 31.1936 14.4209V14.4209C31.39 14.2292 31.6536 14.122 31.928 14.122H32.1M30 15V15C30.6942 15.6773 31.2599 16.4749 31.6695 17.3541L31.7283 17.4803C32.2695 18.642 32.55 19.908 32.55 21.1896V21.7317L32.1 27.439M32.1 14.122L32.85 13.0976M32.1 14.122V14.122C32.1 13.9325 32.0357 13.7486 31.9176 13.6004L31.4992 13.0757C31.2047 12.7062 30.8201 12.4188 30.3824 12.2409L30.0199 12.0935C29.5114 11.8868 28.9678 11.7805 28.4189 11.7805H27.8222C27.1769 11.7805 26.5271 11.868 25.9043 12.0368V12.0368C24.7603 12.3468 23.6929 12.9284 22.8165 13.7265L21.9 14.561M32.1 14.122V14.122C33.1762 14.981 33.9761 16.1375 34.4002 17.4476L34.65 18.2195M32.85 13.0976L33.75 12.5122M32.85 13.0976V13.0976C34.014 13.76 34.9126 14.8051 35.3931 16.0552L36 17.6342V17.6342C36.2986 18.7023 36.45 19.8063 36.45 20.9154V21M33.75 12.5122H34.2798C34.7193 12.5122 35.1515 12.6246 35.5354 12.8386V12.8386C35.8419 13.0094 36.1103 13.2411 36.3242 13.5193L37.2042 14.6641C37.6004 15.1794 37.9431 15.7337 38.227 16.3184L38.4915 16.8632C38.9289 17.7642 39.2568 18.7143 39.468 19.6933V19.6933C39.6555 20.562 39.75 21.4481 39.75 22.3368V24.3659V26.3097C39.75 27.8411 40.5263 30.1335 39.15 30.8049V30.8049C38.9372 30.9087 37.372 32.7845 36.3578 34.0244M33.75 12.5122V12.5122C33.75 12.0498 33.5395 11.6125 33.1781 11.324L32.3568 10.6684C32.1859 10.532 32.0033 10.411 31.8111 10.3069L31.5307 10.1549C31.0122 9.87382 30.4614 9.65665 29.8906 9.50814L29.6533 9.4464C28.8875 9.24719 28.0996 9.14636 27.3083 9.14636H25.65H22.35M34.95 35.0488L35.5053 34.7392C35.8321 34.557 36.1209 34.314 36.3578 34.0244V34.0244M34.95 35.0488L33.75 39M34.95 35.0488L36 36.2195M34.95 35.0488H34.05M33.15 35.0488L32.85 35.1552M33.15 35.0488H33.6M33.15 35.0488V35.0488C32.7577 34.8468 32.4293 34.5398 32.2013 34.1621L31.5 33M28.95 38.4147L28.5745 37.5599C28.5249 37.447 28.4846 37.3302 28.454 37.2108L28.1443 36.0021C28.0879 35.7822 28.1781 35.5508 28.3684 35.4271V35.4271C28.4543 35.3712 28.5545 35.3415 28.657 35.3415H29.25L30.0795 35.4494C31.0133 35.5709 31.9626 35.4701 32.85 35.1552V35.1552M28.95 38.4147V38.4147C29.6446 39.1891 30.1971 40.0799 30.5823 41.0462L31.05 42.2195V42.2195C31.3489 42.9972 31.5535 43.8079 31.6594 44.6343L31.8 45.7317V45.7317C31.8 47.2498 30.6981 48.5434 29.1994 48.7849L18.6 50.4925M28.95 38.4147V38.4147C28.3578 38.1258 27.7075 37.9756 27.0486 37.9756H26.85V37.9756C26.2704 37.9756 25.7112 38.1892 25.2791 38.5756L24.4838 39.2869C24.2617 39.4855 24.0572 39.703 23.8727 39.937L23.5855 40.3013C22.965 41.0883 22.4606 41.9601 22.0875 42.8902L21.3 44.8537L19.8 48.3659L18.6 50.4925M19.8 35.9268H19.663C17.6687 35.9268 15.7877 35.0003 14.5722 33.4192V33.4192C14.3578 33.1402 14.1666 32.8441 14.0007 32.5338L12.6848 30.0732M19.8 35.9268L20.55 37.9756L20.9354 39.3542C20.9783 39.5076 21 39.6661 21 39.8254V39.8254C21 40.5602 20.5411 41.2167 19.8511 41.4691L19.8 41.4878L18.15 42.2195L16.05 43.3903L13.8883 44.7963C13.8295 44.8345 13.7677 44.8677 13.7034 44.8956V44.8956C13.0292 45.1879 12.7497 45.9947 13.0986 46.6414L14.2656 48.8045C14.9747 50.1191 16.4382 50.8408 17.9129 50.6032L18.6 50.4925M32.1 27.439L31.688 28.6449C31.2632 29.8882 30.7492 31.0991 30.15 32.2683V32.2683M32.1 27.439L32.4882 27.2118C32.7079 27.0832 32.9829 27.0973 33.1883 27.2476V27.2476C33.3528 27.3679 33.45 27.5595 33.45 27.7633V28.5366M30.15 32.2683H30.1786C30.7373 32.2683 31.2738 32.0499 31.6737 31.6598V31.6598C31.7578 31.5778 31.8484 31.5029 31.9447 31.4357L32.3016 31.1871C32.6617 30.9361 32.9547 30.6006 33.1549 30.2101V30.2101C33.3488 29.8316 33.45 29.4124 33.45 28.9871V28.5366M21.9 14.561L20.1 16.0244L18.15 17.6342L16.05 19.6829L13.8 22.1708M13.8 22.1708V22.1708C13.6008 21.3933 13.5 20.594 13.5 19.7915V19.2439M13.8 22.1708L13.9442 21.3735C14.1463 20.2563 14.5552 19.1866 15.15 18.2195V18.2195V18.2195C16.0479 16.7596 17.0852 15.3901 18.2474 14.1303L19.2 13.0976L21 11.4878M13.5 19.2439L14.292 17.6987C15.0569 16.206 16.1005 14.8737 17.3664 13.7734V13.7734C18.1856 13.0613 19.09 12.4534 20.0587 11.9637L21 11.4878M13.5 19.2439V19.2439C13.0245 19.5222 12.6964 19.9965 12.6037 20.5396L12.4547 21.4118C12.4516 21.4299 12.45 21.4483 12.45 21.4667V22.1369C12.45 22.3952 12.0859 22.4499 12.0099 22.2031V22.2031C12.0033 22.1816 12 22.1594 12 22.1369V20.9151C12 20.0981 12.1198 19.2855 12.3556 18.5033L12.4079 18.3299C12.6351 17.5763 12.9543 16.8535 13.3582 16.1779L13.8 15.439L15.15 13.5366L15.3894 13.2818C16.3249 12.2861 17.3987 11.43 18.5779 10.7398V10.7398C19.3906 10.264 20.2485 9.86997 21.139 9.56335L22.35 9.14636M21 11.4878L24.5817 10.4686C24.5938 10.4652 24.6064 10.4634 24.619 10.4634V10.4634C24.7831 10.4634 24.8073 10.6999 24.6466 10.7332L21 11.4878ZM22.35 9.14636L21.8254 9.24385C20.0831 9.56762 18.3927 10.1255 16.8 10.9025V10.9025V10.9025C15.7071 11.484 14.7149 12.2376 13.8614 13.1344L13.2 13.8293L11.7177 15.5465C11.1086 16.2522 10.5962 17.0359 10.1939 17.8768V17.8768C9.89868 18.4941 9.66447 19.1387 9.49462 19.8015L9.16654 21.0818C9.05595 21.5134 9 21.9571 9 22.4027V23.2111C9 23.9564 9.26595 24.6772 9.75 25.2439V25.2439M9.75 25.2439L9.53302 23.0212C9.4779 22.4565 9.49472 21.8871 9.5831 21.3267V21.3267C9.69366 20.6256 9.91496 19.9464 10.2387 19.3148L10.3409 19.1153C10.6458 18.5204 11.0232 17.9655 11.4644 17.4634L11.7 17.1951M9.75 25.2439L9.8707 26.3626C9.99003 27.4686 10.2005 28.5628 10.5 29.6342V29.6342L10.8523 31.6962C11.1169 33.2456 11.25 34.8145 11.25 36.3863V36.3863C11.25 37.7368 11.3482 39.0854 11.5439 40.4216L11.7 41.4878L11.9361 42.9848C11.9781 43.2512 12.0831 43.5038 12.2425 43.7215L12.6775 44.3157C12.7231 44.3779 12.7956 44.4147 12.8727 44.4147V44.4147C13.0353 44.4147 13.1516 44.2573 13.1038 44.1018L12.795 43.0975C12.7652 43.0005 12.75 42.8997 12.75 42.7983V40.6098L12.45 36.6586V33L12.6848 30.0732M32.85 35.1552V35.1552C32.3885 36.3504 32.6248 37.7027 33.4642 38.6705L33.75 39M32.85 35.1552L33.75 39M33.75 39L36 36.2195M33.75 39L33.45 40.6098L33.15 42.9512V44.5609C33.15 45.8119 33.8712 46.9509 35.0022 47.4859L35.3886 47.6687C36.8602 48.3648 38.6144 47.6799 39.225 46.1708V46.1708M33.75 39L34.95 38.8266M37.8 38.4147V38.4147C38.363 37.3162 38.3456 36.0102 37.7535 34.9271L37.5 34.4634M37.8 38.4147L37.5 38.458L36 38.6748M37.8 38.4147L37.5 34.4634M37.8 38.4147L36 36.2195M37.8 38.4147L38.7 39.8781L39.4491 41.0265C39.6488 41.3326 39.8057 41.6646 39.9157 42.0131V42.0131C40.1964 42.9034 40.1585 43.8635 39.8084 44.7288L39.225 46.1708M37.5 34.4634L36.3578 34.0244M37.5 34.4634L37.3856 34.575C36.958 34.9922 36.2473 34.6115 36.3578 34.0244V34.0244M34.05 35.0488L34.3228 34.7383C34.7401 34.2633 35.1132 33.7514 35.4376 33.2088L35.4681 33.158C35.8217 32.5665 36.1123 31.9396 36.3351 31.2874V31.2874C36.6105 30.4813 36.7803 29.6429 36.84 28.7932L36.9661 27V27C36.9431 26.563 36.306 26.5411 36.253 26.9755L36.0063 28.9971C36.0021 29.0315 35.9946 29.0654 35.9838 29.0983L34.95 32.2683L33.75 34.7399M34.05 35.0488H33.6M33.6 35.0488L33.75 34.7399M33.45 28.5366V28.5366C34.0688 28.5743 34.4965 29.1714 34.333 29.7695L34.05 30.8049L33.75 33V34.7399M34.95 38.8266L34.6788 41.894C34.6596 42.1106 34.6586 42.3285 34.6757 42.5453V42.5453C34.8319 44.5271 36.4511 46.0758 38.4378 46.1438L39.225 46.1708M34.95 38.8266L36 38.6748M38.1 43.3903L37.759 42.309C37.5873 41.7645 37.3363 41.2483 37.0142 40.7769L36.3486 39.8029C36.1215 39.4705 36 39.0773 36 38.6748V38.6748M36 38.6748L36.0614 38.7241C37.0115 39.4862 37.8056 40.4247 38.4 41.4878V41.4878L39.15 42.9512M18.6 33.439L18.7221 33.3795C19.0353 33.2267 19.3034 32.9951 19.5 32.7073V32.7073M17.25 32.122L16.9659 31.429C16.9553 31.4032 16.9472 31.3765 16.9416 31.3493L16.9161 31.2249C16.8621 30.9617 17.1006 30.7319 17.3617 30.7955V30.7955C17.3872 30.8018 17.4119 30.8107 17.4355 30.8222L17.7963 30.9982C18.3259 31.2565 18.7934 31.6261 19.167 32.0817L19.2 32.122M16.8 27.2927L17.1 27.8781M17.4 26.4147L17.7 25.8293M24.75 27.7317H26.1M27 27.2927L27.6573 26.6514C27.719 26.5913 27.7745 26.5252 27.8231 26.4541L27.8987 26.3433C27.9973 26.1991 28.05 26.0285 28.05 25.8539V25.8539C28.05 25.741 28.028 25.6292 27.9852 25.5248L27.75 24.9512M27.75 24.9512L27.3622 24.4215C27.1217 24.0931 26.8401 23.7969 26.5243 23.5401L26.2295 23.3004C26.1434 23.2305 26.0497 23.1706 25.95 23.122V23.122M27.75 24.9512V25.2979C27.75 25.4548 27.7127 25.6094 27.6411 25.749V25.749C27.6138 25.8024 27.5816 25.8532 27.545 25.9008L27.3637 26.1366C27.222 26.3211 27.0547 26.4844 26.867 26.6217L26.7418 26.7133C26.6147 26.8063 26.4737 26.8785 26.324 26.9272V26.9272C26.1756 26.9754 26.0205 27 25.8645 27H25.2002C25.1007 27 25.0018 26.9843 24.9071 26.9536V26.9536C24.708 26.8888 24.5359 26.7599 24.4178 26.587L24.3953 26.5541C24.3322 26.4617 24.284 26.36 24.2525 26.2526L24.2402 26.2103C24.1809 26.0078 24.1701 25.7943 24.2088 25.587L24.3 25.0976L24.3684 24.8308C24.4226 24.6191 24.5003 24.414 24.6 24.2195V24.2195L24.7283 23.9692C24.8408 23.7497 25.0088 23.5634 25.2156 23.4289V23.4289C25.3049 23.3708 25.4005 23.323 25.5006 23.2864L25.95 23.122M21.9 23.6342L22.7527 23.135C23.1766 22.8869 23.6589 22.7561 24.15 22.7561V22.7561H24.5768C24.8903 22.7561 25.2019 22.8055 25.5 22.9025V22.9025L25.95 23.122M15.15 26.7073L14.8324 26.5834C14.5495 26.473 14.3022 26.2874 14.1171 26.0467V26.0467C14.0064 25.9027 13.9201 25.7416 13.8614 25.5698L13.8 25.3903M16.8 23.4878L16.35 22.7561L16.2299 22.5217C16.1131 22.2939 15.9256 22.1101 15.6956 21.9979V21.9979C15.534 21.919 15.3566 21.8781 15.1768 21.8781H15.0386C14.9133 21.8781 14.7885 21.8931 14.6668 21.9228V21.9228C14.3939 21.9893 14.144 22.1279 13.9429 22.324L13.5 22.7561M25.05 20.2683V20.2683C26.2245 19.8864 27.4848 19.8551 28.6768 20.1784L29.0085 20.2683M26.1 24.9512V24.9512C26.1921 24.9512 26.2764 25.0028 26.3184 25.0847L26.3628 25.1714C26.3873 25.219 26.4 25.2719 26.4 25.3255V25.3255C26.4 25.4547 26.3263 25.5725 26.2102 25.6292L26.1809 25.6435C26.1277 25.6694 26.0692 25.6829 26.0099 25.6829H25.903C25.8369 25.6829 25.7736 25.6571 25.7263 25.6111V25.6111C25.6775 25.5634 25.65 25.4982 25.65 25.43V25.337C25.65 25.2758 25.6646 25.2155 25.6925 25.1611V25.1611C25.7585 25.0323 25.891 24.9512 26.0358 24.9512H26.1ZM16.35 23.0488V23.0488C16.4495 23.243 16.5222 23.4499 16.566 23.6637L16.5943 23.8014C16.6313 23.9821 16.65 24.1661 16.65 24.3506V24.4817C16.65 24.6957 16.6146 24.9084 16.5454 25.1109V25.1109C16.5152 25.1994 16.4786 25.2857 16.4359 25.3689L16.2783 25.6765C16.227 25.7766 16.1504 25.8616 16.0561 25.9229L15.9261 26.0074C15.8169 26.0785 15.6783 26.087 15.5611 26.0298V26.0298C15.489 25.9947 15.4302 25.937 15.3936 25.8656L15.276 25.6361C15.1932 25.4745 15.15 25.2956 15.15 25.114V24.8488C15.15 24.7222 15.1607 24.5958 15.182 24.471L15.2804 23.8955C15.2934 23.819 15.3126 23.7436 15.3377 23.6701L15.3541 23.6222C15.4171 23.4376 15.5227 23.2705 15.6623 23.1343L15.7186 23.0794C15.7395 23.059 15.7623 23.0408 15.7867 23.0249L15.9243 22.9354C16.0717 22.8395 16.2698 22.8923 16.35 23.0488V23.0488ZM15.75 24.3659V24.1798C15.75 24.1116 15.7775 24.0463 15.8263 23.9987L15.8379 23.9875C15.8777 23.9486 15.9311 23.9268 15.9868 23.9268H16.0537C16.1345 23.9268 16.2 23.9924 16.2 24.0732V24.0732V24.3659V24.4056C16.2 24.4738 16.1725 24.5391 16.1237 24.5867L16.1037 24.6062C16.0693 24.6398 16.0231 24.6586 15.975 24.6586V24.6586C15.9269 24.6586 15.8807 24.6398 15.8463 24.6062L15.8263 24.5867C15.7775 24.5391 15.75 24.4738 15.75 24.4056V24.3659Z" stroke="#FFF8FB"/>
</g>
<defs>
<filter id="filter0_d" x="0.5" y="0.646362" width="48.1017" height="58.5017" filterUnits="userSpaceOnUse" color-interpolation-filters="sRGB">
<feFlood flood-opacity="0" result="BackgroundImageFix"/>
<feColorMatrix in="SourceAlpha" type="matrix" values="0 0 0 0 0 0 0 0 0 0 0 0 0 0 0 0 0 0 127 0"/>
<feOffset/>
<feGaussianBlur stdDeviation="4"/>
<feColorMatrix type="matrix" values="0 0 0 0 0.970833 0 0 0 0 0.0647222 0 0 0 0 0.0647222 0 0 0 1 0"/>
<feBlend mode="normal" in2="BackgroundImageFix" result="effect1_dropShadow"/>
<feBlend mode="normal" in="SourceGraphic" in2="effect1_dropShadow" result="shape"/>
</filter>
</defs>
</svg>
