<svg width="160" height="168" viewBox="0 0 160 168" fill="none" xmlns="http://www.w3.org/2000/svg">
<ellipse cx="80" cy="78.0488" rx="80" ry="78.0488" fill="#DD0A0A"/>
<ellipse cx="80" cy="78.0488" rx="75" ry="73.1707" fill="#FFC0DE"/>
<g filter="url(#filter0_d)">
<path d="M44 67.8049V73.1377C44 75.0873 43.5734 77.0133 42.75 78.7805V78.7805C41.9266 80.5477 41.5 82.4736 41.5 84.4232V87.1209C41.5 88.2105 41.7688 89.2831 42.2826 90.2439V90.2439M84.5 104.878L70.8913 109.027C69.3059 109.51 67.6575 109.756 66 109.756V109.756M84.5 104.878L84.5605 104.795C87.839 100.317 90.5088 95.4242 92.5 90.2439V90.2439V90.2439C94.1624 84.4053 95.2288 78.4132 95.6828 72.3595L96.5 61.4634L96.6951 57.561M84.5 104.878L79 114.634L77.2603 117.746C74.431 122.806 70.9846 127.496 67 131.707V131.707L60.5906 136.998C60.5304 137.048 60.4646 137.09 60.3944 137.125L58.3962 138.099C57.5641 138.505 58.0298 139.765 58.9258 139.531V139.531C58.9751 139.519 59.0231 139.501 59.069 139.479L61.6821 138.204C64.5423 136.809 67.1609 134.965 69.4388 132.743L75.5 126.829L88.5 114.634L93.3842 108.545C96.121 105.134 98.5051 101.453 100.5 97.561V97.561M97.5 41.4634L91.8282 45.2362C88.2857 47.5926 84.9985 50.3119 82.0199 53.35L75.7446 59.7505C75.5825 59.9159 75.4463 60.1048 75.3407 60.3109L73.2248 64.4393C72.6612 65.5392 71 65.1383 71 63.9024V63.9024V63.9024C71 62.2925 71.3206 60.6988 71.9432 59.2141L75.5 50.7317M97.5 41.4634L100 40M97.5 41.4634L96.6951 57.561M75.5 50.7317L77.3465 48.75C79.4383 46.5052 81.8377 44.5683 84.4732 42.997L87.2157 41.3619C88.7264 40.4612 90.386 39.8379 92.116 39.5214L94.6505 39.0578C96.4889 38.7215 98.387 39.0558 100 40V40M75.5 50.7317L72.1629 54.6851C69.7289 57.5686 67.6311 60.7198 65.91 64.0779L64.1014 67.6071C64.0339 67.7387 63.9776 67.8758 63.9331 68.0168L62.9458 71.1475C62.5987 72.248 61.0922 72.375 60.5658 71.348V71.348C60.5221 71.2626 60.488 71.1726 60.4642 71.0796L59 65.3658L58.8404 64.5094C58.2924 61.569 58.6269 58.5322 59.8016 55.7816V55.7816C60.2656 54.6951 60.8551 53.6667 61.558 52.7172L67 45.3658L73 38.5366M100 40L102.883 38.7946C103.291 38.6241 103.662 38.3781 103.979 38.0695V38.0695C104.633 37.4307 105.512 37.0732 106.427 37.0732H107M100 40V40C102.314 42.2577 104.2 44.9164 105.565 47.8469L105.761 48.2676C107.565 52.1398 108.5 56.36 108.5 60.6318V62.439L107 81.4634M107 37.0732L109.5 33.6585M107 37.0732V37.0732C107 36.4415 106.786 35.8286 106.392 35.3347L104.997 33.5855C104.016 32.3541 102.734 31.3958 101.275 30.8028L100.066 30.3115C98.3715 29.6225 96.5593 29.2683 94.7298 29.2683H92.7406C90.5897 29.2683 88.4238 29.5599 86.3478 30.1225V30.1225C82.5343 31.156 78.9763 33.0947 76.055 35.7548L73 38.5366M107 37.0732V37.0732C110.587 39.9367 113.254 43.7917 114.667 48.1587L115.5 50.7317M109.5 33.6585L112.5 31.7073M109.5 33.6585V33.6585C113.38 35.8666 116.375 39.3502 117.977 43.5171L120 48.7805V48.7805C120.995 52.341 121.5 56.0208 121.5 59.7179V60M112.5 31.7073H114.266C115.731 31.7073 117.172 32.0818 118.451 32.7952V32.7952C119.473 33.3648 120.368 34.1368 121.081 35.0642L124.014 38.8801C125.335 40.5978 126.477 42.4455 127.423 44.3946L128.305 46.2106C129.763 49.2138 130.856 52.381 131.56 55.6444V55.6444C132.185 58.5399 132.5 61.4937 132.5 64.4558V71.2195V78.0832C132.5 82.9319 133.407 88.3471 130.764 92.4115C130.675 92.547 130.587 92.6403 130.5 92.6829C129.791 93.029 124.573 99.2817 121.193 103.415M112.5 31.7073V31.7073C112.5 30.1659 111.798 28.7083 110.594 27.7467L107.856 25.5614C107.286 25.1067 106.678 24.7034 106.037 24.3561L105.102 23.8496C103.374 22.9127 101.538 22.1888 99.6352 21.6937L98.8443 21.4879C96.2918 20.8239 93.6652 20.4878 91.0278 20.4878H85.5H74.5M116.5 106.829L118.351 105.797C119.44 105.19 120.403 104.38 121.193 103.415V103.415M116.5 106.829L112.5 120M116.5 106.829L120 110.732M116.5 106.829H113.5M110.5 106.829L109.5 107.184M110.5 106.829H112M110.5 106.829V106.829C109.192 106.156 108.098 105.133 107.338 103.873L105 100M96.5 118.049L95.2484 115.2C95.0831 114.823 94.9487 114.434 94.8467 114.036L93.8143 110.007C93.6264 109.274 93.927 108.503 94.5614 108.09V108.09C94.8476 107.904 95.1818 107.805 95.5232 107.805H97.5L100.265 108.165C103.378 108.569 106.542 108.233 109.5 107.184V107.184M96.5 118.049V118.049C98.8152 120.63 100.657 123.6 101.941 126.821L103.5 130.732V130.732C104.496 133.324 105.178 136.026 105.531 138.781L106 142.439V142.439C106 147.499 102.327 151.811 97.3313 152.616L62 158.308M96.5 118.049V118.049C94.526 117.086 92.3585 116.585 90.1621 116.585H89.5V116.585C87.5681 116.585 85.7039 117.297 84.2638 118.585L81.6127 120.956C80.8723 121.618 80.1908 122.343 79.5758 123.123L78.6183 124.338C76.5501 126.961 74.8686 129.867 73.6251 132.967L71 139.512L66 151.219L62 158.308M66 109.756H65.5434C58.8958 109.756 52.6256 106.667 48.5741 101.397V101.397C47.8593 100.467 47.222 99.4802 46.6689 98.4459L42.2826 90.2439M66 109.756L68.5 116.585L69.7846 121.181C69.9275 121.692 70 122.22 70 122.751V122.751C70 125.2 68.4704 127.389 66.1703 128.23L66 128.293L60.5 130.732L53.5 134.634L46.2942 139.321C46.0984 139.448 45.8923 139.559 45.678 139.652V139.652C43.4307 140.626 42.4992 143.315 43.6621 145.471L47.5519 152.682C49.9158 157.063 54.7941 159.469 59.7096 158.677L62 158.308M107 81.4634L105.627 85.4829C104.211 89.6271 102.497 93.6636 100.5 97.561V97.561M107 81.4634L108.294 80.706C109.026 80.2773 109.943 80.3242 110.628 80.8252V80.8252C111.176 81.2263 111.5 81.8649 111.5 82.5442V85.1219M100.5 97.561H100.595C102.458 97.561 104.246 96.8331 105.579 95.5326V95.5326C105.859 95.2593 106.161 95.0095 106.482 94.7857L107.672 93.9568C108.872 93.1203 109.849 92.0021 110.516 90.7001V90.7001C111.163 89.4385 111.5 88.0411 111.5 86.6234V85.1219M73 38.5366L67 43.4146L60.5 48.7805L53.5 55.6097L46 63.9024M46 63.9024V63.9024C45.336 61.3111 45 58.6466 45 55.9715V54.1463M46 63.9024L46.4807 61.245C47.1543 57.5209 48.5174 53.9554 50.5 50.7317V50.7317V50.7317C53.493 45.8651 56.9506 41.3001 60.8245 37.1008L64 33.6585L70 28.2927M45 54.1463L47.6398 48.9954C50.1897 44.0201 53.6683 39.5788 57.8879 35.9112V35.9112C60.6188 33.5375 63.6332 31.5113 66.8623 29.8789L70 28.2927M45 54.1463V54.1463C43.4151 55.0741 42.3214 56.655 42.0122 58.4652L41.5155 61.3726C41.5052 61.433 41.5 61.4942 41.5 61.5555V63.7897C41.5 64.6507 40.2862 64.8331 40.0331 64.0102V64.0102C40.0112 63.9387 40 63.8644 40 63.7897V59.7168C40 56.9935 40.3994 54.2849 41.1855 51.6775L41.3597 51.0995C42.117 48.5875 43.1809 46.1782 44.5274 43.9263L46 41.4634L50.5 35.1219L51.298 34.2727C54.4165 30.9536 57.9958 28.1 61.9262 25.7993V25.7993C64.6354 24.2134 67.4951 22.8998 70.4633 21.8778L74.5 20.4878M70 28.2927L81.939 24.8954C81.9795 24.8839 82.0213 24.878 82.0634 24.878V24.878C82.6102 24.878 82.6909 25.6663 82.1554 25.7771L70 28.2927ZM74.5 20.4878L72.7512 20.8128C66.9438 21.892 61.3089 23.7517 56 26.3415V26.3415V26.3415C52.3571 28.28 49.0497 30.7921 46.2047 33.7812L44 36.0975L39.0591 41.8217C37.0288 44.174 35.3206 46.7861 33.9798 49.5893V49.5893C32.9956 51.6468 32.2149 53.7955 31.6487 56.0049L30.5551 60.2726C30.1865 61.7112 30 63.1904 30 64.6754V67.3703C30 69.8546 30.8865 72.2573 32.5 74.1463V74.1463M32.5 74.1463L31.7767 66.7371C31.593 64.8549 31.6491 62.9571 31.9437 61.089V61.089C32.3122 58.7518 33.0499 56.4881 34.129 54.3824L34.4697 53.7176C35.486 51.7346 36.7438 49.8851 38.2145 48.2111L39 47.3171M32.5 74.1463L32.9023 77.8752C33.3001 81.5618 34.0017 85.2093 35 88.7805V88.7805L36.1742 95.654C37.0565 100.818 37.5 106.048 37.5 111.288V111.288C37.5 115.789 37.8274 120.285 38.4796 124.739L39 128.293L39.7869 133.282C39.9269 134.171 40.2771 135.013 40.8083 135.738L42.2585 137.719C42.4103 137.926 42.6519 138.049 42.9088 138.049V138.049C43.4511 138.049 43.8387 137.524 43.6793 137.006L42.6499 133.658C42.5505 133.335 42.5 132.999 42.5 132.661V125.366L41.5 112.195V100L42.2826 90.2439M109.5 107.184V107.184C107.962 111.168 108.749 115.675 111.547 118.902L112.5 120M109.5 107.184L112.5 120M112.5 120L120 110.732M112.5 120L111.5 125.366L110.5 133.171V138.536C110.5 142.706 112.904 146.503 116.674 148.286L117.962 148.896C122.867 151.216 128.715 148.933 130.75 143.902V143.902M112.5 120L116.5 119.422M126 118.049V118.049C127.877 114.387 127.819 110.034 125.845 106.424L125 104.878M126 118.049L125 118.193L120 118.916M126 118.049L125 104.878M126 118.049L120 110.732M126 118.049L129 122.927L131.497 126.755C132.163 127.775 132.686 128.882 133.052 130.044V130.044C133.988 133.011 133.862 136.212 132.695 139.096L130.75 143.902M125 104.878L121.193 103.415M125 104.878L124.619 105.25C123.193 106.641 120.824 105.372 121.193 103.415V103.415M113.5 106.829L114.409 105.794C115.8 104.211 117.044 102.505 118.125 100.696L118.227 100.526C119.406 98.5549 120.374 96.4651 121.117 94.2913V94.2913C122.035 91.6044 122.601 88.8097 122.8 85.9772L123.22 80V80C123.144 78.5432 121.02 78.4702 120.843 79.9183L120.021 86.6569C120.007 86.7715 119.982 86.8845 119.946 86.9944L116.5 97.561L112.5 105.799M113.5 106.829H112M112 106.829L112.5 105.799M111.5 85.1219V85.1219C113.563 85.2477 114.988 87.238 114.443 89.2315L113.5 92.6829L112.5 100V105.799M116.5 119.422L115.596 129.647C115.532 130.369 115.529 131.095 115.586 131.818V131.818C116.106 138.424 121.504 143.586 128.126 143.813L130.75 143.902M116.5 119.422L120 118.916M127 134.634L125.863 131.03C125.291 129.215 124.454 127.494 123.381 125.923L121.162 122.676C120.405 121.568 120 120.258 120 118.916V118.916M120 118.916L120.205 119.08C123.372 121.621 126.019 124.749 128 128.293V128.293L130.5 133.171M62 101.463L62.407 101.265C63.451 100.756 64.3446 99.9835 65 99.0244V99.0244M57.5 97.0732L56.5529 94.7632C56.5177 94.6774 56.4906 94.5884 56.472 94.4974L56.387 94.083C56.2071 93.2055 57.002 92.4395 57.8722 92.6518V92.6518C57.9572 92.6725 58.0396 92.7022 58.1182 92.7406L59.321 93.3273C61.0862 94.1884 62.6447 95.4203 63.89 96.939L64 97.0732M56 80.9756L57 82.9268M58 78.0488L59 76.0975M82.5 82.439H87M90 80.9756L92.1911 78.838C92.3965 78.6375 92.5816 78.4172 92.7435 78.1802L92.9958 77.811C93.3243 77.3303 93.5 76.7617 93.5 76.1795V76.1795C93.5 75.8033 93.4266 75.4307 93.2839 75.0826L92.5 73.1707M92.5 73.1707L91.2072 71.405C90.4057 70.3102 89.4671 69.3228 88.4144 68.4669L87.4317 67.668C87.1448 67.4348 86.8322 67.2352 86.5 67.0732V67.0732M92.5 73.1707V74.3262C92.5 74.8492 92.3756 75.3647 92.1371 75.8301V75.8301C92.0459 76.008 91.9387 76.1773 91.8168 76.3358L91.2124 77.1221C90.7399 77.7368 90.1824 78.2812 89.5567 78.739L89.1394 79.0443C88.7158 79.3543 88.2457 79.5949 87.7465 79.7572V79.7572C87.2519 79.9181 86.7351 80 86.215 80H84.0007C83.669 80 83.3393 79.9477 83.0238 79.8451V79.8451C82.36 79.6293 81.7864 79.1996 81.3926 78.6233L81.3176 78.5135C81.1072 78.2056 80.9466 77.8664 80.8418 77.5085L80.8005 77.3675C80.603 76.6927 80.5671 75.981 80.696 75.2898L81 73.6585L81.2279 72.7693C81.4087 72.0635 81.6677 71.3801 82 70.7317V70.7317L82.4277 69.8972C82.8027 69.1655 83.3626 68.5446 84.0519 68.0963V68.0963C84.3497 67.9026 84.6684 67.7433 85.002 67.6212L86.5 67.0732M73 68.7805L75.8425 67.1166C77.2553 66.2896 78.8629 65.8536 80.5 65.8536V65.8536H81.9227C82.9677 65.8536 84.0062 66.0183 85 66.3414V66.3414L86.5 67.0732M50.5 79.0244L49.4413 78.6112C48.4984 78.2433 47.6739 77.6246 47.057 76.8221V76.8221C46.6882 76.3423 46.4002 75.8054 46.2045 75.2327L46 74.6341M56 68.2927L54.5 65.8536L54.0995 65.0722C53.7104 64.3129 53.0855 63.7002 52.3186 63.3261V63.3261C51.7799 63.0634 51.1885 62.9268 50.5892 62.9268H50.1286C49.711 62.9268 49.295 62.9768 48.8893 63.0758V63.0758C47.9798 63.2976 47.1465 63.7595 46.4764 64.4133L45 65.8536M83.5 57.561V57.561C87.4149 56.2878 91.6161 56.1836 95.5894 57.2611L96.6951 57.561M87 73.1707V73.1707C87.3069 73.1707 87.5881 73.3425 87.728 73.6157L87.876 73.9044C87.9575 74.0634 88 74.2395 88 74.4182V74.4182C88 74.8488 87.7545 75.2417 87.3675 75.4305L87.2698 75.4781C87.0923 75.5647 86.8973 75.6097 86.6998 75.6097H86.3432C86.1232 75.6097 85.9118 75.5237 85.7544 75.3701V75.3701C85.5917 75.2114 85.5 74.9938 85.5 74.7666V74.4567C85.5 74.2527 85.5485 74.0517 85.6415 73.8702V73.8702C85.8616 73.4408 86.3035 73.1707 86.7859 73.1707H87ZM54.5 66.8293V66.8293C54.8318 67.4767 55.0741 68.1662 55.2202 68.8788L55.3143 69.338C55.4378 69.9404 55.5 70.5537 55.5 71.1686V71.6054C55.5 72.3189 55.3821 73.0279 55.1515 73.703V73.703C55.0507 73.998 54.9286 74.2856 54.7865 74.563L54.261 75.5882C54.09 75.9219 53.8346 76.2051 53.5202 76.4096L53.0872 76.6913C52.7229 76.9282 52.261 76.9566 51.8705 76.7661V76.7661C51.63 76.6488 51.434 76.4566 51.312 76.2185L50.92 75.4537C50.644 74.915 50.5 74.3185 50.5 73.7133V72.8293C50.5 72.4073 50.5357 71.986 50.6068 71.57L50.9345 69.6517C50.9781 69.3965 51.0421 69.1452 51.1258 68.9002L51.1803 68.7406C51.3905 68.1254 51.7425 67.5683 52.2078 67.1143L52.3955 66.9312C52.465 66.8634 52.541 66.8026 52.6224 66.7496L53.081 66.4514C53.5725 66.1317 54.2326 66.3075 54.5 66.8293V66.8293ZM52.5 71.2195V70.5993C52.5 70.372 52.5917 70.1544 52.7544 69.9957L52.7929 69.9581C52.9257 69.8286 53.1038 69.7561 53.2893 69.7561H53.5122C53.7816 69.7561 54 69.9745 54 70.2439V70.2439V71.2195V71.3519C54 71.5792 53.9083 71.7968 53.7456 71.9555L53.6789 72.0205C53.5642 72.1325 53.4103 72.1951 53.25 72.1951V72.1951C53.0897 72.1951 52.9358 72.1325 52.8211 72.0205L52.7544 71.9555C52.5917 71.7968 52.5 71.5792 52.5 71.3519V71.2195Z" stroke="#FFF8FB"/>
</g>
<defs>
<filter id="filter0_d" x="21.5" y="11.9878" width="120.672" height="155.339" filterUnits="userSpaceOnUse" color-interpolation-filters="sRGB">
<feFlood flood-opacity="0" result="BackgroundImageFix"/>
<feColorMatrix in="SourceAlpha" type="matrix" values="0 0 0 0 0 0 0 0 0 0 0 0 0 0 0 0 0 0 127 0"/>
<feOffset/>
<feGaussianBlur stdDeviation="4"/>
<feColorMatrix type="matrix" values="0 0 0 0 0.970833 0 0 0 0 0.0647222 0 0 0 0 0.0647222 0 0 0 1 0"/>
<feBlend mode="normal" in2="BackgroundImageFix" result="effect1_dropShadow"/>
<feBlend mode="normal" in="SourceGraphic" in2="effect1_dropShadow" result="shape"/>
</filter>
</defs>
</svg>
