<svg width="64" height="74" viewBox="0 0 64 74" fill="none" xmlns="http://www.w3.org/2000/svg">
<ellipse cx="32" cy="32.2195" rx="32" ry="31.2195" fill="#DD0A0A"/>
<ellipse cx="32" cy="32.2195" rx="30" ry="29.2683" fill="#FFC0DE"/>
<g filter="url(#filter0_d)">
<path d="M17.6 28.122V30.2551C17.6 31.0349 17.4293 31.8053 17.1 32.5122V32.5122C16.7707 33.2191 16.6 33.9895 16.6 34.7693V35.8484C16.6 36.2842 16.7075 36.7133 16.913 37.0976V37.0976M33.8 42.9512L28.3565 44.6108C27.7223 44.8042 27.063 44.9024 26.4 44.9024V44.9024M33.8 42.9512L33.8242 42.9182C35.1356 41.127 36.2035 39.1697 37 37.0976V37.0976V37.0976C37.665 34.7621 38.0915 32.3653 38.2731 29.9438L38.6 25.5854L38.678 24.0244M33.8 42.9512L31.6 46.8537L30.9041 48.0984C29.7724 50.1225 28.3938 51.9984 26.8 53.6829V53.6829L24.2362 55.7994C24.2122 55.8192 24.1858 55.8362 24.1578 55.8499L23.3585 56.2398C23.0256 56.4021 23.2119 56.9059 23.5703 56.8126V56.8126C23.5901 56.8075 23.6092 56.8004 23.6276 56.7914L24.6729 56.2815C25.8169 55.7235 26.8644 54.986 27.7755 54.0971L30.2 51.7317L35.4 46.8537L37.3537 44.4182C38.4484 43.0535 39.4021 41.5814 40.2 40.0244V40.0244M39 17.5854L36.7313 19.0945C35.3143 20.0371 33.9994 21.1248 32.808 22.34L30.2978 24.9002C30.233 24.9664 30.1785 25.0419 30.1363 25.1244L29.2899 26.7757C29.0645 27.2157 28.4 27.0553 28.4 26.561V26.561V26.561C28.4 25.917 28.5283 25.2795 28.7773 24.6857L30.2 21.2927M39 17.5854L40 17M39 17.5854L38.678 24.0244M30.2 21.2927L30.9386 20.5C31.7753 19.6021 32.7351 18.8273 33.7893 18.1988L34.8863 17.5448C35.4906 17.1845 36.1544 16.9352 36.8464 16.8086L37.8602 16.6231C38.5956 16.4886 39.3548 16.6223 40 17V17M30.2 21.2927L28.8652 22.874C27.8916 24.0274 27.0524 25.2879 26.364 26.6312L25.6406 28.0428C25.6136 28.0955 25.5911 28.1503 25.5733 28.2068L25.1783 29.459C25.0395 29.8992 24.4369 29.95 24.2263 29.5392V29.5392C24.2088 29.5051 24.1952 29.4691 24.1857 29.4319L23.6 27.1463L23.5362 26.8038C23.317 25.6276 23.4507 24.4129 23.9206 23.3126V23.3126C24.1062 22.8781 24.342 22.4667 24.6232 22.0869L26.8 19.1463L29.2 16.4146M40 17L41.1532 16.5178C41.3163 16.4497 41.465 16.3513 41.5915 16.2278V16.2278C41.8534 15.9723 42.2048 15.8293 42.5707 15.8293H42.8M40 17V17C40.9257 17.9031 41.6799 18.9666 42.226 20.1388L42.3044 20.307C43.0261 21.8559 43.4 23.544 43.4 25.2528V25.9756L42.8 33.5854M42.8 15.8293L43.8 14.4634M42.8 15.8293V15.8293C42.8 15.5766 42.7142 15.3314 42.5567 15.1339L41.9989 14.4342C41.6062 13.9416 41.0935 13.5583 40.5099 13.3211L40.0265 13.1246C39.3486 12.849 38.6237 12.7073 37.8919 12.7073H37.0962C36.2359 12.7073 35.3695 12.824 34.5391 13.049V13.049C33.0137 13.4624 31.5905 14.2379 30.422 15.3019L29.2 16.4146M42.8 15.8293V15.8293C44.2349 16.9747 45.3015 18.5167 45.8669 20.2635L46.2 21.2927M43.8 14.4634L45 13.6829M43.8 14.4634V14.4634C45.3519 15.3466 46.5501 16.7401 47.1908 18.4069L48 20.5122V20.5122C48.3981 21.9364 48.6 23.4083 48.6 24.8872V25M45 13.6829H45.7063C46.2924 13.6829 46.8687 13.8327 47.3806 14.1181V14.1181C47.7892 14.3459 48.1471 14.6547 48.4322 15.0257L49.6056 16.552C50.1338 17.2391 50.5907 17.9782 50.9693 18.7579L51.322 19.4843C51.9052 20.6856 52.3424 21.9524 52.624 23.2578V23.2578C52.874 24.416 53 25.5975 53 26.7823V29.4878V32.0796C53 34.1214 54.0351 37.178 52.2 38.0732V38.0732C51.9162 38.2116 49.8293 40.7127 48.477 42.3659M45 13.6829V13.6829C45 13.0664 44.7194 12.4833 44.2375 12.0987L43.1424 11.2246C42.9146 11.0427 42.6711 10.8814 42.4148 10.7425L42.041 10.5398C41.3495 10.1651 40.6152 9.87551 39.8541 9.67749L39.5377 9.59518C38.5167 9.32956 37.4661 9.19513 36.4111 9.19513H34.2H29.8M46.6 43.7317L47.3405 43.3189C47.7762 43.076 48.1612 42.752 48.477 42.3659V42.3659M46.6 43.7317L45 49M46.6 43.7317L48 45.2927M46.6 43.7317H45.4M44.2 43.7317L43.8 43.8736M44.2 43.7317H44.8M44.2 43.7317V43.7317C43.677 43.4624 43.239 43.0531 42.9351 42.5494L42 41M38.6 48.2195L38.0994 47.0799C38.0332 46.9293 37.9795 46.7736 37.9387 46.6143L37.5257 45.0028C37.4506 44.7096 37.5708 44.4011 37.8245 44.2361V44.2361C37.9391 44.1616 38.0727 44.122 38.2093 44.122H39L40.106 44.2658C41.3511 44.4278 42.6167 44.2934 43.8 43.8736V43.8736M38.6 48.2195V48.2195C39.5261 49.2521 40.2628 50.4399 40.7764 51.7283L41.4 53.2927V53.2927C41.7986 54.3296 42.0714 55.4106 42.2125 56.5124L42.4 57.9756V57.9756C42.4 59.9997 40.9308 61.7245 38.9325 62.0465L24.8 64.3233M38.6 48.2195V48.2195C37.8104 47.8343 36.9434 47.6342 36.0648 47.6342H35.8V47.6342C35.0272 47.6342 34.2815 47.9189 33.7055 48.4341L32.6451 49.3825C32.3489 49.6473 32.0763 49.9374 31.8303 50.2494L31.4473 50.7351C30.62 51.7843 29.9475 52.9467 29.4501 54.1869L28.4 56.8049L26.4 61.4878L24.8 64.3233M26.4 44.9024H26.2173C23.5583 44.9024 21.0502 43.667 19.4297 41.5589V41.5589C19.1437 41.1869 18.8888 40.7921 18.6676 40.3784L16.913 37.0976M26.4 44.9024L27.4 47.6342L27.9138 49.4723C27.971 49.6768 28 49.8882 28 50.1005V50.1005C28 51.0802 27.3881 51.9556 26.4681 52.2922L26.4 52.3171L24.2 53.2927L21.4 54.8537L18.5177 56.7284C18.4394 56.7793 18.3569 56.8236 18.2712 56.8607V56.8607C17.3723 57.2505 16.9997 58.3262 17.4649 59.1885L19.0208 62.0726C19.9663 63.8254 21.9176 64.7877 23.8839 64.4709L24.8 64.3233M42.8 33.5854L42.2507 35.1932C41.6843 36.8509 40.999 38.4655 40.2 40.0244V40.0244M42.8 33.5854L43.3176 33.2824C43.6105 33.1109 43.9772 33.1297 44.2511 33.3301V33.3301C44.4704 33.4905 44.6 33.746 44.6 34.0177V35.0488M40.2 40.0244H40.2382C40.9831 40.0244 41.6984 39.7332 42.2316 39.2131V39.2131C42.3437 39.1037 42.4645 39.0038 42.593 38.9143L43.0688 38.5827C43.5489 38.2481 43.9396 37.8008 44.2065 37.2801V37.2801C44.4651 36.7754 44.6 36.2165 44.6 35.6494V35.0488M29.2 16.4146L26.8 18.3659L24.2 20.5122L21.4 23.2439L18.4 26.561M18.4 26.561V26.561C18.1344 25.5244 18 24.4586 18 23.3886V22.6585M18.4 26.561L18.5923 25.498C18.8617 24.0084 19.407 22.5822 20.2 21.2927V21.2927V21.2927C21.3972 19.3461 22.7803 17.5201 24.3298 15.8403L25.6 14.4634L28 12.3171M18 22.6585L19.0559 20.5982C20.0759 18.608 21.4673 16.8315 23.1552 15.3645V15.3645C24.2475 14.415 25.4533 13.6046 26.7449 12.9516L28 12.3171M18 22.6585V22.6585C17.366 23.0296 16.9286 23.662 16.8049 24.3861L16.6062 25.5491C16.6021 25.5732 16.6 25.5977 16.6 25.6222V26.5159C16.6 26.8603 16.1145 26.9332 16.0133 26.6041V26.6041C16.0045 26.5755 16 26.5458 16 26.5159V24.8867C16 23.7974 16.1598 22.714 16.4742 21.671L16.5439 21.4398C16.8468 20.435 17.2724 19.4713 17.811 18.5705L18.4 17.5854L20.2 15.0488L20.5192 14.7091C21.7666 13.3815 23.1983 12.24 24.7705 11.3197V11.3197C25.8542 10.6854 26.998 10.1599 28.1853 9.75112L29.8 9.19513M28 12.3171L32.7756 10.9582C32.7918 10.9536 32.8085 10.9512 32.8253 10.9512V10.9512C33.0441 10.9512 33.0764 11.2665 32.8622 11.3109L28 12.3171ZM29.8 9.19513L29.1005 9.32512C26.7775 9.7568 24.5236 10.5007 22.4 11.5366V11.5366V11.5366C20.9428 12.312 19.6199 13.3168 18.4819 14.5125L17.6 15.439L15.6237 17.7287C14.8115 18.6696 14.1282 19.7145 13.5919 20.8357V20.8357C13.1982 21.6587 12.886 22.5182 12.6595 23.402L12.2221 25.109C12.0746 25.6845 12 26.2762 12 26.8702V27.9481C12 28.9418 12.3546 29.903 13 30.6585V30.6585M13 30.6585L12.7107 27.6949C12.6372 26.942 12.6596 26.1828 12.7775 25.4356V25.4356C12.9249 24.5007 13.2199 23.5952 13.6516 22.753L13.7879 22.4871C14.1944 21.6939 14.6975 20.954 15.2858 20.2844L15.6 19.9268M13 30.6585L13.1609 32.1501C13.32 33.6248 13.6007 35.0838 14 36.5122V36.5122L14.4697 39.2616C14.8226 41.3274 15 43.4194 15 45.5151V45.5151C15 47.3157 15.131 49.1139 15.3918 50.8954L15.6 52.3171L15.9147 54.313C15.9708 54.6683 16.1109 55.0051 16.3233 55.2953L16.9034 56.0876C16.9641 56.1705 17.0607 56.2195 17.1635 56.2195V56.2195C17.3804 56.2195 17.5355 56.0097 17.4717 55.8023L17.06 54.4633C17.0202 54.334 17 54.1996 17 54.0643V51.1464L16.6 45.8781V41L16.913 37.0976M43.8 43.8736V43.8736C43.1847 45.4672 43.4997 47.2702 44.619 48.5607L45 49M43.8 43.8736L45 49M45 49L48 45.2927M45 49L44.6 51.1464L44.2 54.2683V56.4145C44.2 58.0826 45.1616 59.6012 46.6696 60.3145L47.1848 60.5582C49.147 61.4864 51.4859 60.5732 52.3 58.561V58.561M45 49L46.6 48.7688M50.4 48.2195V48.2195C51.1506 46.7549 51.1274 45.0136 50.338 43.5694L50 42.9512M50.4 48.2195L50 48.2773L48 48.5664M50.4 48.2195L50 42.9512M50.4 48.2195L48 45.2927M50.4 48.2195L51.6 50.1707L52.5988 51.702C52.865 52.1101 53.0743 52.5527 53.2209 53.0175V53.0175C53.5952 54.2045 53.5447 55.4847 53.0779 56.6384L52.3 58.561M50 42.9512L48.477 42.3659M50 42.9512L49.8475 43.1C49.2773 43.6563 48.3298 43.1487 48.477 42.3659V42.3659M45.4 43.7317L45.7638 43.3177C46.3201 42.6844 46.8176 42.0019 47.2502 41.2784L47.2907 41.2106C47.7623 40.422 48.1498 39.5861 48.4468 38.7166V38.7166C48.8141 37.6418 49.0403 36.5239 49.12 35.3909L49.2881 33V33C49.2574 32.4173 48.408 32.3881 48.3373 32.9673L48.0084 35.6628C48.0028 35.7086 47.9928 35.7538 47.9785 35.7978L46.6 40.0244L45 43.3198M45.4 43.7317H44.8M44.8 43.7317L45 43.3198M44.6 35.0488V35.0488C45.4251 35.0991 45.9953 35.8952 45.7774 36.6926L45.4 38.0732L45 41V43.3198M46.6 48.7688L46.2384 52.8586C46.2128 53.1475 46.2115 53.438 46.2343 53.7271V53.7271C46.4426 56.3695 48.6014 58.4344 51.2504 58.5251L52.3 58.561M46.6 48.7688L48 48.5664M50.8 54.8537L50.3453 53.412C50.1164 52.686 49.7817 51.9977 49.3522 51.3691L48.4648 50.0705C48.162 49.6273 48 49.1031 48 48.5664V48.5664M48 48.5664L48.0819 48.6321C49.3487 49.6483 50.4075 50.8995 51.2 52.3171V52.3171L52.2 54.2683M24.8 41.5854L24.9628 41.506C25.3804 41.3022 25.7378 40.9934 26 40.6098V40.6098M23 39.8293L22.6212 38.9053C22.6071 38.871 22.5962 38.8354 22.5888 38.799L22.5548 38.6332C22.4829 38.2822 22.8008 37.9758 23.1489 38.0607V38.0607C23.1829 38.069 23.2159 38.0809 23.2473 38.0962L23.7284 38.3309C24.4345 38.6754 25.0579 39.1681 25.556 39.7756L25.6 39.8293M22.4 33.3903L22.8 34.1707M23.2 32.2195L23.6 31.439M33 33.9756H34.8M36 33.3903L36.8764 32.5352C36.9586 32.455 37.0326 32.3669 37.0974 32.2721L37.1983 32.1244C37.3297 31.9321 37.4 31.7047 37.4 31.4718V31.4718C37.4 31.3213 37.3706 31.1723 37.3135 31.033L37 30.2683M37 30.2683L36.4829 29.562C36.1623 29.1241 35.7868 28.7291 35.3657 28.3868L34.9727 28.0672C34.8579 27.9739 34.7329 27.8941 34.6 27.8293V27.8293M37 30.2683V30.7305C37 30.9397 36.9502 31.1459 36.8548 31.332V31.332C36.8184 31.4032 36.7755 31.4709 36.7267 31.5343L36.485 31.8488C36.2959 32.0947 36.073 32.3125 35.8227 32.4956L35.6558 32.6177C35.4863 32.7417 35.2983 32.838 35.0986 32.9029V32.9029C34.9008 32.9672 34.694 33 34.486 33H33.6003C33.4676 33 33.3357 32.9791 33.2095 32.9381V32.9381C32.944 32.8517 32.7146 32.6799 32.557 32.4493L32.527 32.4054C32.4429 32.2823 32.3786 32.1466 32.3367 32.0034L32.3202 31.947C32.2412 31.6771 32.2269 31.3924 32.2784 31.1159L32.4 30.4634L32.4911 30.1077C32.5635 29.8254 32.6671 29.552 32.8 29.2927V29.2927L32.9711 28.9589C33.1211 28.6662 33.3451 28.4179 33.6208 28.2385V28.2385C33.7399 28.1611 33.8674 28.0973 34.0008 28.0485L34.6 27.8293M29.2 28.5122L30.337 27.8467C30.9021 27.5158 31.5452 27.3415 32.2 27.3415V27.3415H32.7691C33.1871 27.3415 33.6025 27.4073 34 27.5366V27.5366L34.6 27.8293M20.2 32.6098L19.7765 32.4445C19.3994 32.2973 19.0696 32.0499 18.8228 31.7289V31.7289C18.6753 31.5369 18.5601 31.3222 18.4818 31.0931L18.4 30.8537M22.4 28.3171L21.8 27.3415L21.6398 27.0289C21.4841 26.7252 21.2342 26.4801 20.9274 26.3305V26.3305C20.712 26.2254 20.4754 26.1707 20.2357 26.1707H20.0514C19.8844 26.1707 19.718 26.1907 19.5557 26.2303V26.2303C19.1919 26.3191 18.8586 26.5038 18.5906 26.7653L18 27.3415M33.4 24.0244V24.0244C34.966 23.5151 36.6464 23.4735 38.2357 23.9045L38.678 24.0244M34.8 30.2683V30.2683C34.9228 30.2683 35.0352 30.337 35.0912 30.4463L35.1504 30.5618C35.183 30.6254 35.2 30.6958 35.2 30.7673V30.7673C35.2 30.9395 35.1018 31.0967 34.947 31.1722L34.9079 31.1913C34.8369 31.2259 34.7589 31.2439 34.6799 31.2439H34.5373C34.4493 31.2439 34.3647 31.2095 34.3017 31.1481V31.1481C34.2367 31.0846 34.2 30.9975 34.2 30.9066V30.7827C34.2 30.7011 34.2194 30.6207 34.2566 30.5481V30.5481C34.3446 30.3763 34.5214 30.2683 34.7144 30.2683H34.8ZM21.8 27.7317V27.7317C21.9327 27.9907 22.0296 28.2665 22.0881 28.5515L22.1257 28.7352C22.1751 28.9762 22.2 29.2215 22.2 29.4675V29.6422C22.2 29.9276 22.1528 30.2112 22.0606 30.4812V30.4812C22.0203 30.5992 21.9715 30.7142 21.9146 30.8252L21.7044 31.2353C21.636 31.3688 21.5338 31.4821 21.4081 31.5639L21.2349 31.6765C21.0892 31.7713 20.9044 31.7826 20.7482 31.7064V31.7064C20.652 31.6595 20.5736 31.5827 20.5248 31.4874L20.368 31.1815C20.2576 30.966 20.2 30.7274 20.2 30.4853V30.1317C20.2 29.9629 20.2143 29.7944 20.2427 29.628L20.3738 28.8607C20.3912 28.7586 20.4168 28.6581 20.4503 28.5601L20.4721 28.4963C20.5562 28.2502 20.697 28.0273 20.8831 27.8457L20.9582 27.7725C20.986 27.7454 21.0164 27.721 21.049 27.6999L21.2324 27.5806C21.429 27.4527 21.693 27.523 21.8 27.7317V27.7317ZM21 29.4878V29.2397C21 29.1488 21.0367 29.0618 21.1017 28.9983L21.1172 28.9832C21.1703 28.9314 21.2415 28.9024 21.3157 28.9024H21.4049C21.5126 28.9024 21.6 28.9898 21.6 29.0976V29.0976V29.4878V29.5408C21.6 29.6317 21.5633 29.7187 21.4983 29.7822L21.4716 29.8082C21.4257 29.853 21.3641 29.8781 21.3 29.8781V29.8781C21.2359 29.8781 21.1743 29.853 21.1284 29.8082L21.1017 29.7822C21.0367 29.7187 21 29.6317 21 29.5408V29.4878Z" stroke="#FFF8FB"/>
</g>
<defs>
<filter id="filter0_d" x="3.5" y="0.695129" width="58.469" height="72.3356" filterUnits="userSpaceOnUse" color-interpolation-filters="sRGB">
<feFlood flood-opacity="0" result="BackgroundImageFix"/>
<feColorMatrix in="SourceAlpha" type="matrix" values="0 0 0 0 0 0 0 0 0 0 0 0 0 0 0 0 0 0 127 0"/>
<feOffset/>
<feGaussianBlur stdDeviation="4"/>
<feColorMatrix type="matrix" values="0 0 0 0 0.970833 0 0 0 0 0.0647222 0 0 0 0 0.0647222 0 0 0 1 0"/>
<feBlend mode="normal" in2="BackgroundImageFix" result="effect1_dropShadow"/>
<feBlend mode="normal" in="SourceGraphic" in2="effect1_dropShadow" result="shape"/>
</filter>
</defs>
</svg>
